<?xml version="1.0" encoding="UTF-8" standalone="no"?>
<!-- Created with Inkscape (http://www.inkscape.org/) -->

<svg
   version="1.1"
   id="svg1"
   width="192.51289"
   height="152.24622"
   viewBox="0 0 192.51289 152.24621"
   xmlns="http://www.w3.org/2000/svg"
   xmlns:svg="http://www.w3.org/2000/svg">
  <defs
     id="defs1" />
  <g
     id="g1"
     transform="translate(9.0494128e-4,5.2325477e-4)">
    <path
       id="path1"
       d="m 11.33876,90.71013 c 0,6.2623 -5.07646,11.33876 -11.33876,11.33876 -6.2623,0 -11.33876,-5.07646 -11.33876,-11.33876 0,-6.26232 5.07646,-11.33876 11.33876,-11.33876 6.2623,0 11.33876,5.07644 11.33876,11.33876 z"
       style="fill:none;stroke:#000000;stroke-width:0.79701;stroke-linecap:butt;stroke-linejoin:miter;stroke-miterlimit:10;stroke-dasharray:none;stroke-opacity:1"
       transform="matrix(1.3333333,0,0,-1.3333333,69.208,136.596)" />
    <g
       id="g2"
       aria-label="x&#10;1"
       transform="matrix(1.0666667,0,0,1.0666667,63.788,17.141333)">
      <path
         id="path2"
         d="m 3.3261914,-3.0035938 c 0.058594,-0.2636718 0.2929688,-1.1865234 0.9814453,-1.1865234 0.058594,0 0.2929688,0 0.4980469,0.1318359 -0.2783203,0.058594 -0.46875,0.3076172 -0.46875,0.5419922 0,0.1611328 0.1025391,0.3515625 0.3808594,0.3515625 0.2197265,0 0.5273437,-0.1757812 0.5273437,-0.5859375 0,-0.5126953 -0.5859375,-0.6591797 -0.9228515,-0.6591797 -0.5712891,0 -0.9228516,0.5273438 -1.0400391,0.7617188 -0.2490234,-0.6591797 -0.7910156,-0.7617188 -1.0839844,-0.7617188 -1.0253906,0 -1.59667967,1.2890625 -1.59667967,1.538086 0,0.102539 0.10253906,0.102539 0.1171875,0.102539 0.0732422,0 0.10253906,-0.014648 0.13183594,-0.1171875 0.33691403,-1.0546875 0.99609373,-1.3037109 1.33300783,-1.3037109 0.1904297,0 0.5419922,0.1025391 0.5419922,0.6738281 0,0.3076172 -0.1757813,0.9814453 -0.5419922,2.3730469 -0.1611328,0.61523439 -0.5126953,1.04003907 -0.9521485,1.04003907 -0.058594,0 -0.27832027,0 -0.49804683,-0.13183593 0.24902344,-0.0585938 0.46875003,-0.26367188 0.46875003,-0.54199219 0,-0.26367185 -0.21972659,-0.35156255 -0.36621097,-0.35156255 -0.29296875,0 -0.54199219,0.26367192 -0.54199219,0.58593755 0,0.45410156 0.49804688,0.64453125 0.93749996,0.64453125 0.6591797,0 1.0107422,-0.68847656 1.0400391,-0.74707031 0.1171875,0.36621093 0.4833984,0.74707031 1.0693359,0.74707031 1.0400391,0 1.5966797,-1.2744141 1.5966797,-1.5234375 0,-0.1025391 -0.087891,-0.1025391 -0.1171875,-0.1025391 -0.087891,0 -0.102539,0.043945 -0.1318359,0.1025391 -0.3222656,1.06933594 -0.9960938,1.31835937 -1.3183594,1.31835937 -0.3955078,0 -0.5566406,-0.32226562 -0.5566406,-0.65917968 0,-0.21972657 0.073242,-0.43945309 0.1757812,-0.87890629 z m 0,0"
         style="fill:#000000;fill-opacity:1;fill-rule:nonzero;stroke:none" />
      <path
         id="path3"
         d="m 8.0246777,-2.945 c 0,-0.1904297 0,-0.1904297 -0.2050781,-0.1904297 -0.4394531,0.4394531 -1.0839844,0.4394531 -1.3623047,0.4394531 v 0.2636719 c 0.1611328,0 0.6298828,0 1.0107422,-0.2050781 v 3.5595703 c 0,0.234375 0,0.3222656 -0.703125,0.3222656 H 6.5012402 v 0.2490235 c 0.131836,0 0.9814453,-0.029297 1.2451172,-0.029297 0.2197266,0 1.0986328,0.029297 1.2451172,0.029297 V 1.2444531 H 8.7278027 c -0.703125,0 -0.703125,-0.087891 -0.703125,-0.3222656 z m 0,0"
         style="fill:#000000;fill-opacity:1;fill-rule:nonzero;stroke:none" />
    </g>
    <path
       id="path4"
       d="m 11.33876,45.35506 c 0,6.2623 -5.07646,11.33876 -11.33876,11.33876 -6.2623,0 -11.33876,-5.07646 -11.33876,-11.33876 0,-6.26232 5.07646,-11.33876 11.33876,-11.33876 6.2623,0 11.33876,5.07644 11.33876,11.33876 z"
       style="fill:none;stroke:#000000;stroke-width:0.79701;stroke-linecap:butt;stroke-linejoin:miter;stroke-miterlimit:10;stroke-dasharray:none;stroke-opacity:1"
       transform="matrix(1.3333333,0,0,-1.3333333,69.208,136.596)" />
    <g
       id="g4"
       aria-label="x&#10;2"
       transform="matrix(1.0666667,0,0,1.0666667,63.788,77.613333)">
      <path
         id="path5"
         d="m 3.3261914,-3.0029785 c 0.058594,-0.2636719 0.2929688,-1.1865235 0.9814453,-1.1865235 0.058594,0 0.2929688,0 0.4980469,0.131836 -0.2783203,0.058594 -0.46875,0.3076172 -0.46875,0.5419922 0,0.1611328 0.1025391,0.3515625 0.3808594,0.3515625 0.2197265,0 0.5273437,-0.1757813 0.5273437,-0.5859375 0,-0.5126953 -0.5859375,-0.6591797 -0.9228515,-0.6591797 -0.5712891,0 -0.9228516,0.5273437 -1.0400391,0.7617187 -0.2490234,-0.6591797 -0.7910156,-0.7617187 -1.0839844,-0.7617187 -1.0253906,0 -1.59667967,1.2890625 -1.59667967,1.5380859 0,0.1025391 0.10253906,0.1025391 0.1171875,0.1025391 0.0732422,0 0.10253906,-0.014648 0.13183594,-0.1171875 0.33691403,-1.0546875 0.99609373,-1.303711 1.33300783,-1.303711 0.1904297,0 0.5419922,0.1025391 0.5419922,0.6738282 0,0.3076172 -0.1757813,0.9814453 -0.5419922,2.3730468 -0.1611328,0.61523442 -0.5126953,1.04003911 -0.9521485,1.04003911 -0.058594,0 -0.27832027,0 -0.49804683,-0.13183594 0.24902344,-0.0585938 0.46875003,-0.26367187 0.46875003,-0.54199219 0,-0.26367188 -0.21972659,-0.35156248 -0.36621097,-0.35156248 -0.29296875,0 -0.54199219,0.26367186 -0.54199219,0.58593748 0,0.45410157 0.49804688,0.64453125 0.93749996,0.64453125 0.6591797,0 1.0107422,-0.68847656 1.0400391,-0.74707031 0.1171875,0.36621094 0.4833984,0.74707031 1.0693359,0.74707031 1.0400391,0 1.5966797,-1.27441403 1.5966797,-1.52343753 0,-0.102539 -0.087891,-0.102539 -0.1171875,-0.102539 -0.087891,0 -0.102539,0.043945 -0.1318359,0.102539 -0.3222656,1.06933597 -0.9960938,1.31835941 -1.3183594,1.31835941 -0.3955078,0 -0.5566406,-0.32226563 -0.5566406,-0.65917969 0,-0.21972656 0.073242,-0.43945312 0.1757812,-0.87890622 z m 0,0"
         style="fill:#000000;fill-opacity:1;fill-rule:nonzero;stroke:none" />
      <path
         id="path6"
         d="M 9.2112012,0.21967773 H 8.9768262 C 8.9621777,0.38081055 8.8889355,0.7909668 8.8010449,0.86420898 8.7424512,0.9081543 8.200459,0.9081543 8.1125684,0.9081543 H 6.8235059 c 0.7324218,-0.65917969 0.9814453,-0.84960938 1.3916015,-1.171875 0.5273438,-0.42480469 0.9960938,-0.8496094 0.9960938,-1.5087891 0,-0.8496093 -0.7324219,-1.3623047 -1.6259766,-1.3623047 -0.8642578,0 -1.4501953,0.600586 -1.4501953,1.2451172 0,0.3515625 0.2929687,0.3955078 0.3662109,0.3955078 0.1757813,0 0.366211,-0.1171875 0.366211,-0.3662109 0,-0.1318359 -0.043945,-0.3808594 -0.4101563,-0.3808594 0.2197266,-0.4833984 0.6884766,-0.6445312 1.0253906,-0.6445312 0.6884766,0 1.0546875,0.5419922 1.0546875,1.1132812 0,0.600586 -0.4248046,1.08398441 -0.6591796,1.33300785 L 6.2082715,1.2157715 c -0.073242,0.073242 -0.073242,0.087891 -0.073242,0.2783203 H 9.006123 Z m 0,0"
         style="fill:#000000;fill-opacity:1;fill-rule:nonzero;stroke:none" />
    </g>
    <path
       id="path7"
       d="M 11.33876,0 C 11.33876,6.2623 6.2623,11.33876 0,11.33876 -6.2623,11.33876 -11.33876,6.2623 -11.33876,0 c 0,-6.2623 5.07646,-11.33876 11.33876,-11.33876 6.2623,0 11.33876,5.07646 11.33876,11.33876 z"
       style="fill:none;stroke:#000000;stroke-width:0.79701;stroke-linecap:butt;stroke-linejoin:miter;stroke-miterlimit:10;stroke-dasharray:none;stroke-opacity:1"
       transform="matrix(1.3333333,0,0,-1.3333333,69.208,136.596)" />
    <g
       id="g7"
       aria-label="x&#10;3"
       transform="matrix(1.0666667,0,0,1.0666667,63.788,138.08667)">
      <path
         id="path8"
         d="m 3.3261914,-3.0036133 c 0.058594,-0.2636719 0.2929688,-1.1865234 0.9814453,-1.1865234 0.058594,0 0.2929688,0 0.4980469,0.1318359 -0.2783203,0.058594 -0.46875,0.3076172 -0.46875,0.5419922 0,0.1611328 0.1025391,0.3515625 0.3808594,0.3515625 0.2197265,0 0.5273437,-0.1757812 0.5273437,-0.5859375 0,-0.5126953 -0.5859375,-0.6591797 -0.9228515,-0.6591797 -0.5712891,0 -0.9228516,0.5273438 -1.0400391,0.7617188 -0.2490234,-0.6591797 -0.7910156,-0.7617188 -1.0839844,-0.7617188 -1.0253906,0 -1.59667967,1.2890625 -1.59667967,1.538086 0,0.102539 0.10253906,0.102539 0.1171875,0.102539 0.0732422,0 0.10253906,-0.014648 0.13183594,-0.1171875 0.33691403,-1.0546875 0.99609373,-1.3037109 1.33300783,-1.3037109 0.1904297,0 0.5419922,0.102539 0.5419922,0.6738281 0,0.3076172 -0.1757813,0.9814453 -0.5419922,2.3730469 -0.1611328,0.61523436 -0.5126953,1.04003904 -0.9521485,1.04003904 -0.058594,0 -0.27832027,0 -0.49804683,-0.13183593 0.24902344,-0.0585938 0.46875003,-0.26367188 0.46875003,-0.54199219 0,-0.26367192 -0.21972659,-0.35156252 -0.36621097,-0.35156252 -0.29296875,0 -0.54199219,0.26367189 -0.54199219,0.58593752 0,0.45410156 0.49804688,0.64453125 0.93749996,0.64453125 0.6591797,0 1.0107422,-0.68847656 1.0400391,-0.74707031 0.1171875,0.36621093 0.4833984,0.74707031 1.0693359,0.74707031 1.0400391,0 1.5966797,-1.27441407 1.5966797,-1.52343747 0,-0.1025391 -0.087891,-0.1025391 -0.1171875,-0.1025391 -0.087891,0 -0.102539,0.043945 -0.1318359,0.1025391 -0.3222656,1.06933591 -0.9960938,1.31835934 -1.3183594,1.31835934 -0.3955078,0 -0.5566406,-0.32226562 -0.5566406,-0.65917968 0,-0.21972657 0.073242,-0.43945316 0.1757812,-0.87890626 z m 0,0"
         style="fill:#000000;fill-opacity:1;fill-rule:nonzero;stroke:none" />
      <path
         id="path9"
         d="m 7.599873,-0.83564453 c 0.5419922,0 0.9375,0.38085937 0.9375,1.12792969 0,0.86425784 -0.5126953,1.11328124 -0.9082031,1.11328124 -0.2783203,0 -0.8935547,-0.073242 -1.1865234,-0.48339843 0.3222656,-0.0146484 0.4101562,-0.24902344 0.4101562,-0.39550781 0,-0.21972657 -0.1757812,-0.38085938 -0.3955078,-0.38085938 -0.1904297,0 -0.3808594,0.1171875 -0.3808594,0.41015625 0,0.64453127 0.7177735,1.08398437 1.5673829,1.08398437 0.9667968,0 1.640625,-0.65917968 1.640625,-1.34765624 0,-0.54199219 -0.4541016,-1.09863282 -1.2158204,-1.25976563 0.7324219,-0.26367183 0.9960938,-0.77636723 0.9960938,-1.20117183 0,-0.5566407 -0.6298828,-0.9667969 -1.40625,-0.9667969 -0.7763672,0 -1.3769531,0.3808594 -1.3769531,0.9375 0,0.234375 0.1611328,0.3662109 0.3662109,0.3662109 0.2197266,0 0.3515625,-0.1611328 0.3515625,-0.3515625 0,-0.2050781 -0.1318359,-0.3515625 -0.3515625,-0.3662109 0.2490234,-0.3076172 0.7324219,-0.3808594 0.9814453,-0.3808594 0.3222656,0 0.7617188,0.1464844 0.7617188,0.7617188 0,0.2929687 -0.1025391,0.6152343 -0.2783203,0.8203125 -0.234375,0.2636718 -0.4248047,0.2783203 -0.7763672,0.3076171 -0.1757813,0.014648 -0.1904297,0.014648 -0.2197266,0.014648 -0.014648,0 -0.073242,0.014648 -0.073242,0.0878906 0,0.10253906 0.058594,0.10253906 0.1757813,0.10253906 z m 0,0"
         style="fill:#000000;fill-opacity:1;fill-rule:nonzero;stroke:none" />
    </g>
    <path
       id="path10"
       d="m 79.37135,90.71013 c 0,6.2623 -5.07646,11.33876 -11.33875,11.33876 -6.26232,0 -11.33877,-5.07646 -11.33877,-11.33876 0,-6.26232 5.07645,-11.33876 11.33877,-11.33876 6.26229,0 11.33875,5.07644 11.33875,11.33876 z"
       style="fill:none;stroke:#000000;stroke-width:0.79701;stroke-linecap:butt;stroke-linejoin:miter;stroke-miterlimit:10;stroke-dasharray:none;stroke-opacity:1"
       transform="matrix(1.3333333,0,0,-1.3333333,69.208,136.596)" />
    <g
       id="g10"
       aria-label="x&#10;4"
       transform="matrix(1.0666667,0,0,1.0666667,154.496,17.141333)">
      <path
         id="path11"
         d="m 3.3252832,-3.0035938 c 0.058594,-0.2636718 0.2929688,-1.1865234 0.9814453,-1.1865234 0.058594,0 0.2929688,0 0.4980469,0.1318359 -0.2783203,0.058594 -0.46875,0.3076172 -0.46875,0.5419922 0,0.1611328 0.1025391,0.3515625 0.3808594,0.3515625 0.2197265,0 0.5273437,-0.1757812 0.5273437,-0.5859375 0,-0.5126953 -0.5859375,-0.6591797 -0.9228515,-0.6591797 -0.5712891,0 -0.9228516,0.5273438 -1.0400391,0.7617188 -0.2490234,-0.6591797 -0.7910156,-0.7617188 -1.0839844,-0.7617188 -1.0253906,0 -1.59667967,1.2890625 -1.59667967,1.538086 0,0.102539 0.10253906,0.102539 0.1171875,0.102539 0.0732422,0 0.10253906,-0.014648 0.13183594,-0.1171875 0.33691403,-1.0546875 0.99609373,-1.3037109 1.33300783,-1.3037109 0.1904297,0 0.5419922,0.1025391 0.5419922,0.6738281 0,0.3076172 -0.1757813,0.9814453 -0.5419922,2.3730469 -0.1611328,0.61523439 -0.5126953,1.04003907 -0.9521485,1.04003907 -0.058594,0 -0.27832027,0 -0.49804683,-0.13183593 0.24902343,-0.0585938 0.46875003,-0.26367188 0.46875003,-0.54199219 0,-0.26367185 -0.2197266,-0.35156255 -0.36621097,-0.35156255 -0.29296875,0 -0.54199219,0.26367192 -0.54199219,0.58593755 0,0.45410156 0.49804688,0.64453125 0.93749996,0.64453125 0.6591797,0 1.0107422,-0.68847656 1.0400391,-0.74707031 0.1171875,0.36621093 0.4833984,0.74707031 1.0693359,0.74707031 1.0400391,0 1.5966797,-1.2744141 1.5966797,-1.5234375 0,-0.1025391 -0.087891,-0.1025391 -0.1171875,-0.1025391 -0.087891,0 -0.102539,0.043945 -0.1318359,0.1025391 -0.3222656,1.06933594 -0.9960938,1.31835937 -1.3183594,1.31835937 -0.3955078,0 -0.5566406,-0.32226562 -0.5566406,-0.65917968 0,-0.21972657 0.073242,-0.43945309 0.1757812,-0.87890629 z m 0,0"
         style="fill:#000000;fill-opacity:1;fill-rule:nonzero;stroke:none" />
      <path
         id="path12"
         d="M 9.3860742,0.35089844 V 0.101875 H 8.609707 v -3.1054688 c 0,-0.1464843 0,-0.2050781 -0.1611328,-0.2050781 -0.073242,0 -0.102539,0 -0.1757812,0.1025391 L 5.9729883,0.101875 V 0.35089844 H 8.0237695 V 0.9221875 c 0,0.234375 0,0.3222656 -0.571289,0.3222656 H 7.2620508 v 0.2490235 c 0.3515625,-0.014648 0.7910156,-0.029297 1.040039,-0.029297 0.2636719,0 0.7177735,0.014648 1.0546875,0.029297 V 1.2444531 H 9.1809961 c -0.5712891,0 -0.5712891,-0.087891 -0.5712891,-0.3222656 V 0.35089844 Z M 8.0677148,-2.4469531 V 0.101875 H 6.2220117 Z m 0,0"
         style="fill:#000000;fill-opacity:1;fill-rule:nonzero;stroke:none" />
    </g>
    <path
       id="path13"
       d="m 79.37135,45.35506 c 0,6.2623 -5.07646,11.33876 -11.33875,11.33876 -6.26232,0 -11.33877,-5.07646 -11.33877,-11.33876 0,-6.26232 5.07645,-11.33876 11.33877,-11.33876 6.26229,0 11.33875,5.07644 11.33875,11.33876 z"
       style="fill:none;stroke:#000000;stroke-width:0.79701;stroke-linecap:butt;stroke-linejoin:miter;stroke-miterlimit:10;stroke-dasharray:none;stroke-opacity:1"
       transform="matrix(1.3333333,0,0,-1.3333333,69.208,136.596)" />
    <g
       id="g13"
       aria-label="x&#10;5"
       transform="matrix(1.0666667,0,0,1.0666667,154.496,77.613333)">
      <path
         id="path14"
         d="M 3.3252832,-3.0029785 C 3.383877,-3.2666504 3.618252,-4.189502 4.3067285,-4.189502 c 0.058594,0 0.2929688,0 0.4980469,0.131836 -0.2783203,0.058594 -0.46875,0.3076172 -0.46875,0.5419922 0,0.1611328 0.1025391,0.3515625 0.3808594,0.3515625 0.2197265,0 0.5273437,-0.1757813 0.5273437,-0.5859375 0,-0.5126953 -0.5859375,-0.6591797 -0.9228515,-0.6591797 -0.5712891,0 -0.9228516,0.5273437 -1.0400391,0.7617187 -0.2490234,-0.6591797 -0.7910156,-0.7617187 -1.0839844,-0.7617187 -1.0253906,0 -1.59667967,1.2890625 -1.59667967,1.5380859 0,0.1025391 0.10253906,0.1025391 0.1171875,0.1025391 0.0732422,0 0.10253906,-0.014648 0.13183594,-0.1171875 0.33691403,-1.0546875 0.99609373,-1.303711 1.33300783,-1.303711 0.1904297,0 0.5419922,0.1025391 0.5419922,0.6738282 0,0.3076172 -0.1757813,0.9814453 -0.5419922,2.3730468 -0.1611328,0.61523442 -0.5126953,1.04003911 -0.9521485,1.04003911 -0.058594,0 -0.27832027,0 -0.49804683,-0.13183594 0.24902343,-0.0585938 0.46875003,-0.26367187 0.46875003,-0.54199219 0,-0.26367188 -0.2197266,-0.35156248 -0.36621097,-0.35156248 -0.29296875,0 -0.54199219,0.26367186 -0.54199219,0.58593748 0,0.45410157 0.49804688,0.64453125 0.93749996,0.64453125 0.6591797,0 1.0107422,-0.68847656 1.0400391,-0.74707031 0.1171875,0.36621094 0.4833984,0.74707031 1.0693359,0.74707031 1.0400391,0 1.5966797,-1.27441403 1.5966797,-1.52343753 0,-0.102539 -0.087891,-0.102539 -0.1171875,-0.102539 -0.087891,0 -0.102539,0.043945 -0.1318359,0.102539 -0.3222656,1.06933597 -0.9960938,1.31835941 -1.3183594,1.31835941 -0.3955078,0 -0.5566406,-0.32226563 -0.5566406,-0.65917969 0,-0.21972656 0.073242,-0.43945312 0.1757812,-0.87890622 z m 0,0"
         style="fill:#000000;fill-opacity:1;fill-rule:nonzero;stroke:none" />
      <path
         id="path15"
         d="m 6.7786523,-2.4023926 c 0.3515625,0.1025391 0.5566407,0.1025391 0.6738282,0.1025391 0.9228515,0 1.4648437,-0.6298828 1.4648437,-0.7324219 0,-0.087891 -0.043945,-0.1025391 -0.087891,-0.1025391 -0.014648,0 -0.029297,0 -0.058594,0.014648 -0.1611328,0.073242 -0.5273437,0.2050781 -1.040039,0.2050781 -0.2050781,0 -0.5712891,-0.014648 -1.0253906,-0.1904297 -0.073242,-0.029297 -0.087891,-0.029297 -0.087891,-0.029297 -0.087891,0 -0.087891,0.073242 -0.087891,0.1904297 v 2.05078128 c 0,0.1171875 0,0.20507813 0.1025391,0.20507813 0.073242,0 0.073242,-0.0146484 0.1464843,-0.10253906 0.2929688,-0.38085935 0.7177735,-0.43945315 0.9667969,-0.43945315 0.4248047,0 0.600586,0.33691408 0.6445313,0.39550783 0.1171875,0.234375 0.1611328,0.49804688 0.1611328,0.89355469 0,0.21972656 0,0.62988281 -0.2050781,0.9375 -0.1757813,0.24902348 -0.46875,0.41015628 -0.8203125,0.41015628 -0.4541016,0 -0.9228516,-0.2490235 -1.0986329,-0.70312503 0.2783204,0.0146484 0.4101563,-0.16113281 0.4101563,-0.3515625 0,-0.29296875 -0.2636719,-0.351562498125 -0.3515625,-0.351562498125 -0.014648,0 -0.3515625,0 -0.3515625,0.380859378125 0,0.62988285 0.5712891,1.25976565 1.40625,1.25976565 0.8935547,0 1.6699219,-0.67382815 1.6699219,-1.5527344 0,-0.77636719 -0.600586,-1.5087891 -1.4648438,-1.5087891 -0.3076172,0 -0.6591797,0.073242 -0.9667969,0.3369141 z m 0,0"
         style="fill:#000000;fill-opacity:1;fill-rule:nonzero;stroke:none" />
    </g>
    <path
       id="path16"
       d="m 79.37135,0 c 0,6.2623 -5.07646,11.33876 -11.33875,11.33876 C 61.77028,11.33876 56.69383,6.2623 56.69383,0 c 0,-6.2623 5.07645,-11.33876 11.33877,-11.33876 6.26229,0 11.33875,5.07646 11.33875,11.33876 z"
       style="fill:none;stroke:#000000;stroke-width:0.79701;stroke-linecap:butt;stroke-linejoin:miter;stroke-miterlimit:10;stroke-dasharray:none;stroke-opacity:1"
       transform="matrix(1.3333333,0,0,-1.3333333,69.208,136.596)" />
    <g
       id="g16"
       aria-label="x&#10;6"
       transform="matrix(1.0666667,0,0,1.0666667,154.496,138.08667)">
      <path
         id="path17"
         d="m 3.3252832,-3.0036133 c 0.058594,-0.2636719 0.2929688,-1.1865234 0.9814453,-1.1865234 0.058594,0 0.2929688,0 0.4980469,0.1318359 -0.2783203,0.058594 -0.46875,0.3076172 -0.46875,0.5419922 0,0.1611328 0.1025391,0.3515625 0.3808594,0.3515625 0.2197265,0 0.5273437,-0.1757812 0.5273437,-0.5859375 0,-0.5126953 -0.5859375,-0.6591797 -0.9228515,-0.6591797 -0.5712891,0 -0.9228516,0.5273438 -1.0400391,0.7617188 -0.2490234,-0.6591797 -0.7910156,-0.7617188 -1.0839844,-0.7617188 -1.0253906,0 -1.59667967,1.2890625 -1.59667967,1.538086 0,0.102539 0.10253906,0.102539 0.1171875,0.102539 0.0732422,0 0.10253906,-0.014648 0.13183594,-0.1171875 0.33691403,-1.0546875 0.99609373,-1.3037109 1.33300783,-1.3037109 0.1904297,0 0.5419922,0.102539 0.5419922,0.6738281 0,0.3076172 -0.1757813,0.9814453 -0.5419922,2.3730469 -0.1611328,0.61523436 -0.5126953,1.04003904 -0.9521485,1.04003904 -0.058594,0 -0.27832027,0 -0.49804683,-0.13183593 0.24902343,-0.0585938 0.46875003,-0.26367188 0.46875003,-0.54199219 0,-0.26367192 -0.2197266,-0.35156252 -0.36621097,-0.35156252 -0.29296875,0 -0.54199219,0.26367189 -0.54199219,0.58593752 0,0.45410156 0.49804688,0.64453125 0.93749996,0.64453125 0.6591797,0 1.0107422,-0.68847656 1.0400391,-0.74707031 0.1171875,0.36621093 0.4833984,0.74707031 1.0693359,0.74707031 1.0400391,0 1.5966797,-1.27441407 1.5966797,-1.52343747 0,-0.1025391 -0.087891,-0.1025391 -0.1171875,-0.1025391 -0.087891,0 -0.102539,0.043945 -0.1318359,0.1025391 -0.3222656,1.06933591 -0.9960938,1.31835934 -1.3183594,1.31835934 -0.3955078,0 -0.5566406,-0.32226562 -0.5566406,-0.65917968 0,-0.21972657 0.073242,-0.43945316 0.1757812,-0.87890626 z m 0,0"
         style="fill:#000000;fill-opacity:1;fill-rule:nonzero;stroke:none" />
      <path
         id="path18"
         d="m 6.734707,-0.79169922 c 0,-0.57128908 0.058594,-1.08398438 0.3222657,-1.50878908 0.234375,-0.3808594 0.6152343,-0.6298828 1.0546875,-0.6298828 0.2050781,0 0.4833984,0.058594 0.6298828,0.234375 -0.1757813,0.014648 -0.3222657,0.1318359 -0.3222657,0.3369141 0,0.1757812 0.1171875,0.336914 0.3222657,0.336914 0.2197265,0 0.336914,-0.1464843 0.336914,-0.3515625 0,-0.3955078 -0.2929687,-0.7617187 -0.9814453,-0.7617187 -0.9960937,0 -2.0214844,0.9228515 -2.0214844,2.41699217 0,1.80175783 0.8496094,2.35839843 1.6113282,2.35839843 0.8496093,0 1.5966797,-0.65917968 1.5966797,-1.56738281 0,-0.89355468 -0.703125,-1.53808589 -1.5234375,-1.53808589 -0.5566407,0 -0.8642579,0.3662109 -1.0253907,0.67382808 z M 7.6868555,1.4055664 c -0.3515625,0 -0.6152344,-0.2050781 -0.7617188,-0.49804687 -0.102539,-0.21972656 -0.1611328,-0.57128906 -0.1611328,-0.98144531 0,-0.67382813 0.3955078,-1.20117192 0.9667969,-1.20117192 0.3076172,0 0.5273437,0.131836 0.703125,0.38085942 0.1611328,0.26367187 0.1757812,0.55664062 0.1757812,0.96679687 0,0.39550782 0,0.68847657 -0.1904297,0.96679691 -0.1611328,0.234375 -0.3955078,0.3662109 -0.7324218,0.3662109 z m 0,0"
         style="fill:#000000;fill-opacity:1;fill-rule:nonzero;stroke:none" />
    </g>
    <path
       id="path19"
       d="m -39.05249,95.68015 h -12.60512 v -9.94004 h 12.60512 z"
       style="fill:#ccccff;fill-opacity:1;fill-rule:nonzero;stroke:#8080ff;stroke-width:0.49814;stroke-linecap:butt;stroke-linejoin:miter;stroke-miterlimit:10;stroke-dasharray:none;stroke-opacity:1"
       transform="matrix(1.3333333,0,0,-1.3333333,69.208,136.596)" />
    <g
       id="g19"
       aria-label="ε&#10;1"
       transform="matrix(1.0666667,0,0,1.0666667,3.8733333,17.141333)">
      <path
         id="path20"
         d="m 1.4078125,-2.2565234 c 0.3222656,0.1318359 0.6152344,0.1318359 0.8496094,0.1318359 0.2636718,0 0.805664,0 0.805664,-0.3076172 0,-0.234375 -0.336914,-0.2636719 -0.7177734,-0.2636719 -0.2050781,0 -0.5566406,0.014648 -0.9228516,0.1904297 -0.234375,-0.1318359 -0.4101562,-0.3076172 -0.4101562,-0.5859375 0,-0.6005859 0.9814453,-0.9667969 1.875,-0.9667969 0.1611328,0 0.5273437,0 0.9228515,0.2783204 0.1025391,0.087891 0.131836,0.102539 0.1904297,0.102539 0.131836,0 0.2783203,-0.1318359 0.2783203,-0.2636719 0,-0.1904296 -0.6152343,-0.571289 -1.2890625,-0.571289 -1.1425781,0 -2.22656245,0.6738281 -2.22656245,1.4208984 0,0.4248047 0.36621095,0.6738281 0.41015625,0.703125 -0.60058594,0.3369141 -0.90820313,0.8935547 -0.90820313,1.3476563 0,0.64453122 0.55664063,1.2597656 1.62597653,1.2597656 1.303711,0 1.8603516,-0.87890625 1.8603516,-1.02539063 0,-0.0585938 -0.043945,-0.10253906 -0.1025391,-0.10253906 -0.058594,0 -0.087891,0.0439453 -0.102539,0.0732422 -0.131836,0.234375 -0.3808594,0.60058594 -1.5673828,0.60058594 -0.6152344,0 -1.46484379,-0.16113282 -1.46484379,-0.86425785 0,-0.336914 0.27832031,-0.8642578 0.89355469,-1.1572265 z m 0.3222656,-0.131836 c 0.234375,-0.087891 0.4394531,-0.087891 0.6152344,-0.087891 0.2490234,0 0.2929687,0 0.46875,0.058594 -0.1464844,0.073242 -0.1757813,0.073242 -0.5566406,0.073242 -0.2197266,0 -0.3369141,0 -0.5273438,-0.043945 z m 0,0"
         style="fill:#000000;fill-opacity:1;fill-rule:nonzero;stroke:none" />
      <path
         id="path21"
         d="m 6.9742187,-2.945 c 0,-0.1904297 0,-0.1904297 -0.2050781,-0.1904297 -0.4394531,0.4394531 -1.0839844,0.4394531 -1.3623047,0.4394531 v 0.2636719 c 0.1611328,0 0.6298828,0 1.0107422,-0.2050781 v 3.5595703 c 0,0.234375 0,0.3222656 -0.703125,0.3222656 H 5.4507812 v 0.2490235 c 0.131836,0 0.9814454,-0.029297 1.2451172,-0.029297 0.2197266,0 1.0986328,0.029297 1.2451172,0.029297 V 1.2444531 H 7.6773437 c -0.703125,0 -0.703125,-0.087891 -0.703125,-0.3222656 z m 0,0"
         style="fill:#000000;fill-opacity:1;fill-rule:nonzero;stroke:none" />
    </g>
    <path
       id="path22"
       d="m -39.05249,50.32507 h -12.60512 v -9.94003 h 12.60512 z"
       style="fill:#ccccff;fill-opacity:1;fill-rule:nonzero;stroke:#8080ff;stroke-width:0.49814;stroke-linecap:butt;stroke-linejoin:miter;stroke-miterlimit:10;stroke-dasharray:none;stroke-opacity:1"
       transform="matrix(1.3333333,0,0,-1.3333333,69.208,136.596)" />
    <g
       id="g22"
       aria-label="ε&#10;2"
       transform="matrix(1.0666667,0,0,1.0666667,3.8733333,77.613333)">
      <path
         id="path23"
         d="m 1.4078125,-2.2559082 c 0.3222656,0.1318359 0.6152344,0.1318359 0.8496094,0.1318359 0.2636718,0 0.805664,0 0.805664,-0.3076172 0,-0.234375 -0.336914,-0.2636718 -0.7177734,-0.2636718 -0.2050781,0 -0.5566406,0.014648 -0.9228516,0.1904297 -0.234375,-0.131836 -0.4101562,-0.3076172 -0.4101562,-0.5859375 0,-0.600586 0.9814453,-0.9667969 1.875,-0.9667969 0.1611328,0 0.5273437,0 0.9228515,0.2783203 0.1025391,0.087891 0.131836,0.1025391 0.1904297,0.1025391 0.131836,0 0.2783203,-0.131836 0.2783203,-0.2636719 0,-0.1904297 -0.6152343,-0.5712891 -1.2890625,-0.5712891 -1.1425781,0 -2.22656245,0.6738281 -2.22656245,1.4208985 0,0.4248046 0.36621095,0.6738281 0.41015625,0.703125 -0.60058594,0.336914 -0.90820313,0.8935546 -0.90820313,1.3476562 0,0.64453126 0.55664063,1.25976563 1.62597653,1.25976563 1.303711,0 1.8603516,-0.87890625 1.8603516,-1.02539062 0,-0.0585938 -0.043945,-0.10253906 -0.1025391,-0.10253906 -0.058594,0 -0.087891,0.0439453 -0.102539,0.0732422 -0.131836,0.234375 -0.3808594,0.60058594 -1.5673828,0.60058594 -0.6152344,0 -1.46484379,-0.16113281 -1.46484379,-0.86425779 0,-0.3369141 0.27832031,-0.8642579 0.89355469,-1.1572266 z m 0.3222656,-0.1318359 c 0.234375,-0.087891 0.4394531,-0.087891 0.6152344,-0.087891 0.2490234,0 0.2929687,0 0.46875,0.058594 -0.1464844,0.073242 -0.1757813,0.073242 -0.5566406,0.073242 -0.2197266,0 -0.3369141,0 -0.5273438,-0.043945 z m 0,0"
         style="fill:#000000;fill-opacity:1;fill-rule:nonzero;stroke:none" />
      <path
         id="path24"
         d="M 8.1607422,0.21967773 H 7.9263672 C 7.9117187,0.38081055 7.8384766,0.7909668 7.7505859,0.86420898 7.6919922,0.9081543 7.15,0.9081543 7.0621094,0.9081543 H 5.7730469 c 0.7324218,-0.65917969 0.9814453,-0.84960938 1.3916015,-1.171875 0.5273438,-0.42480469 0.9960938,-0.8496094 0.9960938,-1.5087891 0,-0.8496093 -0.7324219,-1.3623047 -1.6259766,-1.3623047 -0.8642578,0 -1.4501953,0.600586 -1.4501953,1.2451172 0,0.3515625 0.2929688,0.3955078 0.3662109,0.3955078 0.1757813,0 0.366211,-0.1171875 0.366211,-0.3662109 0,-0.1318359 -0.043945,-0.3808594 -0.4101563,-0.3808594 0.2197266,-0.4833984 0.6884766,-0.6445312 1.0253907,-0.6445312 0.6884765,0 1.0546875,0.5419922 1.0546875,1.1132812 0,0.600586 -0.4248047,1.08398441 -0.6591797,1.33300785 L 5.1578125,1.2157715 c -0.073242,0.073242 -0.073242,0.087891 -0.073242,0.2783203 h 2.8710938 z m 0,0"
         style="fill:#000000;fill-opacity:1;fill-rule:nonzero;stroke:none" />
    </g>
    <path
       id="path25"
       d="M -39.05249,4.97002 H -51.65761 V -4.97 h 12.60512 z"
       style="fill:#ccccff;fill-opacity:1;fill-rule:nonzero;stroke:#8080ff;stroke-width:0.49814;stroke-linecap:butt;stroke-linejoin:miter;stroke-miterlimit:10;stroke-dasharray:none;stroke-opacity:1"
       transform="matrix(1.3333333,0,0,-1.3333333,69.208,136.596)" />
    <g
       id="g25"
       aria-label="ε&#10;3"
       transform="matrix(1.0666667,0,0,1.0666667,3.8733333,138.08667)">
      <path
         id="path26"
         d="m 1.4078125,-2.256543 c 0.3222656,0.131836 0.6152344,0.131836 0.8496094,0.131836 0.2636718,0 0.805664,0 0.805664,-0.3076172 0,-0.234375 -0.336914,-0.2636719 -0.7177734,-0.2636719 -0.2050781,0 -0.5566406,0.014648 -0.9228516,0.1904297 -0.234375,-0.1318359 -0.4101562,-0.3076172 -0.4101562,-0.5859375 0,-0.6005859 0.9814453,-0.9667969 1.875,-0.9667969 0.1611328,0 0.5273437,0 0.9228515,0.2783203 0.1025391,0.087891 0.131836,0.1025391 0.1904297,0.1025391 0.131836,0 0.2783203,-0.1318359 0.2783203,-0.2636719 0,-0.1904297 -0.6152343,-0.571289 -1.2890625,-0.571289 -1.1425781,0 -2.22656245,0.6738281 -2.22656245,1.4208984 0,0.4248047 0.36621095,0.6738281 0.41015625,0.703125 -0.60058594,0.3369141 -0.90820313,0.8935547 -0.90820313,1.3476562 0,0.64453129 0.55664063,1.25976567 1.62597653,1.25976567 1.303711,0 1.8603516,-0.87890625 1.8603516,-1.02539063 0,-0.0585938 -0.043945,-0.10253906 -0.1025391,-0.10253906 -0.058594,0 -0.087891,0.0439453 -0.102539,0.0732422 -0.131836,0.234375 -0.3808594,0.60058594 -1.5673828,0.60058594 -0.6152344,0 -1.46484379,-0.16113282 -1.46484379,-0.86425782 0,-0.3369141 0.27832031,-0.8642578 0.89355469,-1.1572266 z m 0.3222656,-0.1318359 c 0.234375,-0.087891 0.4394531,-0.087891 0.6152344,-0.087891 0.2490234,0 0.2929687,0 0.46875,0.058594 -0.1464844,0.073242 -0.1757813,0.073242 -0.5566406,0.073242 -0.2197266,0 -0.3369141,0 -0.5273438,-0.043945 z m 0,0"
         style="fill:#000000;fill-opacity:1;fill-rule:nonzero;stroke:none" />
      <path
         id="path27"
         d="m 6.5494141,-0.83564453 c 0.5419921,0 0.9375,0.38085937 0.9375,1.12792969 0,0.86425784 -0.5126954,1.11328124 -0.9082032,1.11328124 -0.2783203,0 -0.8935547,-0.073242 -1.1865234,-0.48339843 0.3222656,-0.0146484 0.4101562,-0.24902344 0.4101562,-0.39550781 0,-0.21972657 -0.1757812,-0.38085938 -0.3955078,-0.38085938 -0.1904297,0 -0.3808593,0.1171875 -0.3808593,0.41015625 0,0.64453127 0.7177734,1.08398437 1.5673828,1.08398437 0.9667968,0 1.640625,-0.65917968 1.640625,-1.34765624 0,-0.54199219 -0.4541016,-1.09863282 -1.2158203,-1.25976563 0.7324218,-0.26367183 0.9960937,-0.77636723 0.9960937,-1.20117183 0,-0.5566407 -0.6298828,-0.9667969 -1.40625,-0.9667969 -0.7763672,0 -1.3769531,0.3808594 -1.3769531,0.9375 0,0.234375 0.1611328,0.3662109 0.3662109,0.3662109 0.2197266,0 0.3515625,-0.1611328 0.3515625,-0.3515625 0,-0.2050781 -0.1318359,-0.3515625 -0.3515625,-0.3662109 0.2490235,-0.3076172 0.7324219,-0.3808594 0.9814453,-0.3808594 0.3222657,0 0.7617188,0.1464844 0.7617188,0.7617188 0,0.2929687 -0.1025391,0.6152343 -0.2783203,0.8203125 -0.234375,0.2636718 -0.4248047,0.2783203 -0.7763672,0.3076171 -0.1757813,0.014648 -0.1904297,0.014648 -0.2197266,0.014648 -0.014648,0 -0.073242,0.014648 -0.073242,0.0878906 0,0.10253906 0.058594,0.10253906 0.1757813,0.10253906 z m 0,0"
         style="fill:#000000;fill-opacity:1;fill-rule:nonzero;stroke:none" />
    </g>
    <path
       id="path28"
       d="M 0,79.05673 V 61.67809"
       style="fill:none;stroke:#000000;stroke-width:0.79701;stroke-linecap:butt;stroke-linejoin:miter;stroke-miterlimit:10;stroke-dasharray:none;stroke-opacity:1"
       transform="matrix(1.3333333,0,0,-1.3333333,69.208,136.596)" />
    <path
       id="path29"
       d="M 4.66248,0 C 3.28098,0.25902 1.0361,1.0361 -0.51805,1.94269 V -1.94269 C 1.0361,-1.0361 3.28098,-0.25902 4.66248,0"
       style="fill:#000000;fill-opacity:1;fill-rule:nonzero;stroke:none"
       transform="matrix(0,1.3333333,1.3333333,0,69.208,54.358547)" />
    <path
       id="path30"
       d="M 8.24408,82.47221 C 28.71196,62.00291 28.71196,28.71196 11.54036,11.54025"
       style="fill:none;stroke:#000000;stroke-width:0.79701;stroke-linecap:butt;stroke-linejoin:miter;stroke-miterlimit:10;stroke-dasharray:none;stroke-opacity:1"
       transform="matrix(1.3333333,0,0,-1.3333333,69.208,136.596)" />
    <path
       id="path31"
       d="M 4.66248,0 C 3.28098,0.25902 1.0361,1.0361 -0.51805,1.94269 V -1.94269 C 1.0361,-1.0361 3.28098,-0.25902 4.66248,0"
       style="fill:#000000;fill-opacity:1;fill-rule:nonzero;stroke:none"
       transform="matrix(-0.94278667,0.9428,0.9428,0.94278667,84.595147,121.20897)" />
    <path
       id="path32"
       d="M 0,33.69926 V 16.32065"
       style="fill:none;stroke:#000000;stroke-width:0.79701;stroke-linecap:butt;stroke-linejoin:miter;stroke-miterlimit:10;stroke-dasharray:none;stroke-opacity:1"
       transform="matrix(1.3333333,0,0,-1.3333333,69.208,136.596)" />
    <path
       id="path33"
       d="M 4.66248,0 C 3.28098,0.25902 1.0361,1.0361 -0.51805,1.94269 V -1.94269 C 1.0361,-1.0361 3.28098,-0.25902 4.66248,0"
       style="fill:#000000;fill-opacity:1;fill-rule:nonzero;stroke:none"
       transform="matrix(0,1.3333333,1.3333333,0,69.208,114.83513)" />
    <path
       id="path34"
       d="M 68.03773,79.05692 68.0371,61.67783"
       style="fill:none;stroke:#000000;stroke-width:0.79701;stroke-linecap:butt;stroke-linejoin:miter;stroke-miterlimit:10;stroke-dasharray:none;stroke-opacity:1"
       transform="matrix(1.3333333,0,0,-1.3333333,69.208,136.596)" />
    <path
       id="path35"
       d="M 4.66248,0 C 3.28098,0.25902 1.0361,1.0361 -0.51805,1.94269 V -1.94269 C 1.0361,-1.0361 3.28098,-0.25902 4.66248,0"
       style="fill:#000000;fill-opacity:1;fill-rule:nonzero;stroke:none"
       transform="matrix(-2.6666667e-5,1.3333067,1.3333067,2.6666667e-5,159.92415,54.358893)" />
    <path
       id="path36"
       d="M 76.28078,82.47275 C 96.74814,62.00291 96.74814,28.71196 79.57674,11.53976"
       style="fill:none;stroke:#000000;stroke-width:0.79701;stroke-linecap:butt;stroke-linejoin:miter;stroke-miterlimit:10;stroke-dasharray:none;stroke-opacity:1"
       transform="matrix(1.3333333,0,0,-1.3333333,69.208,136.596)" />
    <path
       id="path37"
       d="M 4.66248,0 C 3.28098,0.25902 1.0361,1.0361 -0.51805,1.94269 V -1.94269 C 1.0361,-1.0361 3.28098,-0.25902 4.66248,0"
       style="fill:#000000;fill-opacity:1;fill-rule:nonzero;stroke:none"
       transform="matrix(-0.94274667,0.94282667,0.94282667,0.94274667,175.31032,121.20963)" />
    <path
       id="path38"
       d="M 68.03773,33.69945 68.0371,16.32039"
       style="fill:none;stroke:#000000;stroke-width:0.79701;stroke-linecap:butt;stroke-linejoin:miter;stroke-miterlimit:10;stroke-dasharray:none;stroke-opacity:1"
       transform="matrix(1.3333333,0,0,-1.3333333,69.208,136.596)" />
    <path
       id="path39"
       d="M 4.66248,0 C 3.28098,0.25902 1.0361,1.0361 -0.51805,1.94269 V -1.94269 C 1.0361,-1.0361 3.28098,-0.25902 4.66248,0"
       style="fill:#000000;fill-opacity:1;fill-rule:nonzero;stroke:none"
       transform="matrix(-2.6666667e-5,1.3333067,1.3333067,2.6666667e-5,159.92415,114.83548)" />
    <path
       id="path40"
       d="m 11.65797,90.71594 40.05771,-1.7e-4"
       style="fill:none;stroke:#000000;stroke-width:0.79701;stroke-linecap:butt;stroke-linejoin:miter;stroke-miterlimit:10;stroke-dasharray:none;stroke-opacity:1"
       transform="matrix(1.3333333,0,0,-1.3333333,69.208,136.596)" />
    <path
       id="path41"
       d="M 4.66248,0 C 3.28098,0.25902 1.0361,1.0361 -0.51805,1.94269 V -1.94269 C 1.0361,-1.0361 3.28098,-0.25902 4.66248,0"
       style="fill:#000000;fill-opacity:1;fill-rule:nonzero;stroke:none"
       transform="matrix(1.3333333,0,0,-1.3333333,138.16224,15.64164)" />
    <path
       id="path42"
       d="M 9.7003,84.24931 54.45755,54.41046"
       style="fill:none;stroke:#000000;stroke-width:0.79701;stroke-linecap:butt;stroke-linejoin:miter;stroke-miterlimit:10;stroke-dasharray:none;stroke-opacity:1"
       transform="matrix(1.3333333,0,0,-1.3333333,69.208,136.596)" />
    <path
       id="path43"
       d="M 4.66248,0 C 3.28098,0.25902 1.0361,1.0361 -0.51805,1.94269 V -1.94269 C 1.0361,-1.0361 3.28098,-0.25902 4.66248,0"
       style="fill:#000000;fill-opacity:1;fill-rule:nonzero;stroke:none"
       transform="matrix(1.1093333,0.73958667,0.73958667,-1.1093333,141.81804,64.048693)" />
    <path
       id="path44"
       d="M 6.99493,81.38885 58.2443,13.05643"
       style="fill:none;stroke:#000000;stroke-width:0.79701;stroke-linecap:butt;stroke-linejoin:miter;stroke-miterlimit:10;stroke-dasharray:none;stroke-opacity:1"
       transform="matrix(1.3333333,0,0,-1.3333333,69.208,136.596)" />
    <path
       id="path45"
       d="M 4.66248,0 C 3.28098,0.25902 1.0361,1.0361 -0.51805,1.94269 V -1.94269 C 1.0361,-1.0361 3.28098,-0.25902 4.66248,0"
       style="fill:#000000;fill-opacity:1;fill-rule:nonzero;stroke:none"
       transform="matrix(0.79998667,1.0666267,1.0666267,-0.79998667,146.86707,119.18743)" />
    <path
       id="path46"
       d="M 9.6994,51.82407 54.45712,81.66246"
       style="fill:none;stroke:#000000;stroke-width:0.79701;stroke-linecap:butt;stroke-linejoin:miter;stroke-miterlimit:10;stroke-dasharray:none;stroke-opacity:1"
       transform="matrix(1.3333333,0,0,-1.3333333,69.208,136.596)" />
    <path
       id="path47"
       d="M 4.66248,0 C 3.28098,0.25902 1.0361,1.0361 -0.51805,1.94269 V -1.94269 C 1.0361,-1.0361 3.28098,-0.25902 4.66248,0"
       style="fill:#000000;fill-opacity:1;fill-rule:nonzero;stroke:none"
       transform="matrix(1.10936,-0.73956,-0.73956,-1.10936,141.81747,27.71272)" />
    <path
       id="path48"
       d="m 11.65797,45.35796 40.05771,-3.7e-4"
       style="fill:none;stroke:#000000;stroke-width:0.79701;stroke-linecap:butt;stroke-linejoin:miter;stroke-miterlimit:10;stroke-dasharray:none;stroke-opacity:1"
       transform="matrix(1.3333333,0,0,-1.3333333,69.208,136.596)" />
    <path
       id="path49"
       d="M 4.66248,0 C 3.28098,0.25902 1.0361,1.0361 -0.51805,1.94269 V -1.94269 C 1.0361,-1.0361 3.28098,-0.25902 4.66248,0"
       style="fill:#000000;fill-opacity:1;fill-rule:nonzero;stroke:none"
       transform="matrix(1.3333333,0,0,-1.3333333,138.16224,76.119213)" />
    <path
       id="path50"
       d="M 9.69995,38.89153 54.45749,9.05275"
       style="fill:none;stroke:#000000;stroke-width:0.79701;stroke-linecap:butt;stroke-linejoin:miter;stroke-miterlimit:10;stroke-dasharray:none;stroke-opacity:1"
       transform="matrix(1.3333333,0,0,-1.3333333,69.208,136.596)" />
    <path
       id="path51"
       d="M 4.66248,0 C 3.28098,0.25902 1.0361,1.0361 -0.51805,1.94269 V -1.94269 C 1.0361,-1.0361 3.28098,-0.25902 4.66248,0"
       style="fill:#000000;fill-opacity:1;fill-rule:nonzero;stroke:none"
       transform="matrix(1.10936,0.73956,0.73956,-1.10936,141.81796,124.52567)" />
    <path
       id="path52"
       d="M 6.99478,9.3262 58.24393,77.65883"
       style="fill:none;stroke:#000000;stroke-width:0.79701;stroke-linecap:butt;stroke-linejoin:miter;stroke-miterlimit:10;stroke-dasharray:none;stroke-opacity:1"
       transform="matrix(1.3333333,0,0,-1.3333333,69.208,136.596)" />
    <path
       id="path53"
       d="M 4.66248,0 C 3.28098,0.25902 1.0361,1.0361 -0.51805,1.94269 V -1.94269 C 1.0361,-1.0361 3.28098,-0.25902 4.66248,0"
       style="fill:#000000;fill-opacity:1;fill-rule:nonzero;stroke:none"
       transform="matrix(0.79998667,-1.0666267,-1.0666267,-0.79998667,146.86657,33.050893)" />
    <path
       id="path54"
       d="M 9.69977,6.46643 54.45712,36.30482"
       style="fill:none;stroke:#000000;stroke-width:0.79701;stroke-linecap:butt;stroke-linejoin:miter;stroke-miterlimit:10;stroke-dasharray:none;stroke-opacity:1"
       transform="matrix(1.3333333,0,0,-1.3333333,69.208,136.596)" />
    <path
       id="path55"
       d="M 4.66248,0 C 3.28098,0.25902 1.0361,1.0361 -0.51805,1.94269 V -1.94269 C 1.0361,-1.0361 3.28098,-0.25902 4.66248,0"
       style="fill:#000000;fill-opacity:1;fill-rule:nonzero;stroke:none"
       transform="matrix(1.10936,-0.73956,-0.73956,-1.10936,141.81747,88.189573)" />
    <path
       id="path56"
       d="M 11.65816,0 H 51.7155"
       style="fill:none;stroke:#000000;stroke-width:0.79701;stroke-linecap:butt;stroke-linejoin:miter;stroke-miterlimit:10;stroke-dasharray:none;stroke-opacity:1"
       transform="matrix(1.3333333,0,0,-1.3333333,69.208,136.596)" />
    <path
       id="path57"
       d="M 4.66248,0 C 3.28098,0.25902 1.0361,1.0361 -0.51805,1.94269 V -1.94269 C 1.0361,-1.0361 3.28098,-0.25902 4.66248,0"
       style="fill:#000000;fill-opacity:1;fill-rule:nonzero;stroke:none"
       transform="matrix(1.3333333,0,0,-1.3333333,138.162,136.596)" />
    <path
       id="path58"
       d="m -38.85526,90.71596 22.53481,-2e-5"
       style="fill:none;stroke:#000000;stroke-width:0.79701;stroke-linecap:butt;stroke-linejoin:miter;stroke-miterlimit:10;stroke-dasharray:none;stroke-opacity:1"
       transform="matrix(1.3333333,0,0,-1.3333333,69.208,136.596)" />
    <path
       id="path59"
       d="M 4.66248,0 C 3.28098,0.25902 1.0361,1.0361 -0.51805,1.94269 V -1.94269 C 1.0361,-1.0361 3.28098,-0.25902 4.66248,0"
       style="fill:#000000;fill-opacity:1;fill-rule:nonzero;stroke:none"
       transform="matrix(1.3333333,0,0,-1.3333333,47.4474,15.641413)" />
    <path
       id="path60"
       d="M -40.18938,85.54533 -11.54012,56.8979"
       style="fill:none;stroke:#000000;stroke-width:0.79701;stroke-linecap:butt;stroke-linejoin:miter;stroke-miterlimit:10;stroke-dasharray:none;stroke-opacity:1"
       transform="matrix(1.3333333,0,0,-1.3333333,69.208,136.596)" />
    <path
       id="path61"
       d="M 4.66248,0 C 3.28098,0.25902 1.0361,1.0361 -0.51805,1.94269 V -1.94269 C 1.0361,-1.0361 3.28098,-0.25902 4.66248,0"
       style="fill:#000000;fill-opacity:1;fill-rule:nonzero;stroke:none"
       transform="matrix(0.94282667,0.94277333,0.94277333,-0.94282667,53.82116,60.732107)" />
    <path
       id="path62"
       d="M -42.77502,85.54533 -7.29828,14.59663"
       style="fill:none;stroke:#000000;stroke-width:0.79701;stroke-linecap:butt;stroke-linejoin:miter;stroke-miterlimit:10;stroke-dasharray:none;stroke-opacity:1"
       transform="matrix(1.3333333,0,0,-1.3333333,69.208,136.596)" />
    <path
       id="path63"
       d="M 4.66248,0 C 3.28098,0.25902 1.0361,1.0361 -0.51805,1.94269 V -1.94269 C 1.0361,-1.0361 3.28098,-0.25902 4.66248,0"
       style="fill:#000000;fill-opacity:1;fill-rule:nonzero;stroke:none"
       transform="matrix(0.59626667,1.1925067,1.1925067,-0.59626667,59.476933,117.1338)" />
    <path
       id="path64"
       d="M -40.18945,50.527 -11.5406,79.17514"
       style="fill:none;stroke:#000000;stroke-width:0.79701;stroke-linecap:butt;stroke-linejoin:miter;stroke-miterlimit:10;stroke-dasharray:none;stroke-opacity:1"
       transform="matrix(1.3333333,0,0,-1.3333333,69.208,136.596)" />
    <path
       id="path65"
       d="M 4.66248,0 C 3.28098,0.25902 1.0361,1.0361 -0.51805,1.94269 V -1.94269 C 1.0361,-1.0361 3.28098,-0.25902 4.66248,0"
       style="fill:#000000;fill-opacity:1;fill-rule:nonzero;stroke:none"
       transform="matrix(0.9428,-0.94277333,-0.94277333,-0.9428,53.820507,31.02916)" />
    <path
       id="path66"
       d="m -38.85526,45.35791 22.53481,5e-5"
       style="fill:none;stroke:#000000;stroke-width:0.79701;stroke-linecap:butt;stroke-linejoin:miter;stroke-miterlimit:10;stroke-dasharray:none;stroke-opacity:1"
       transform="matrix(1.3333333,0,0,-1.3333333,69.208,136.596)" />
    <path
       id="path67"
       d="M 4.66248,0 C 3.28098,0.25902 1.0361,1.0361 -0.51805,1.94269 V -1.94269 C 1.0361,-1.0361 3.28098,-0.25902 4.66248,0"
       style="fill:#000000;fill-opacity:1;fill-rule:nonzero;stroke:none"
       transform="matrix(1.3333333,0,0,-1.3333333,47.4474,76.11872)" />
    <path
       id="path68"
       d="m -40.18938,40.18788 28.64896,-28.6476"
       style="fill:none;stroke:#000000;stroke-width:0.79701;stroke-linecap:butt;stroke-linejoin:miter;stroke-miterlimit:10;stroke-dasharray:none;stroke-opacity:1"
       transform="matrix(1.3333333,0,0,-1.3333333,69.208,136.596)" />
    <path
       id="path69"
       d="M 4.66248,0 C 3.28098,0.25902 1.0361,1.0361 -0.51805,1.94269 V -1.94269 C 1.0361,-1.0361 3.28098,-0.25902 4.66248,0"
       style="fill:#000000;fill-opacity:1;fill-rule:nonzero;stroke:none"
       transform="matrix(0.9428,0.94277333,0.94277333,-0.9428,53.820747,121.20893)" />
    <path
       id="path70"
       d="M -42.77502,5.16954 -7.29863,76.11806"
       style="fill:none;stroke:#000000;stroke-width:0.79701;stroke-linecap:butt;stroke-linejoin:miter;stroke-miterlimit:10;stroke-dasharray:none;stroke-opacity:1"
       transform="matrix(1.3333333,0,0,-1.3333333,69.208,136.596)" />
    <path
       id="path71"
       d="M 4.66248,0 C 3.28098,0.25902 1.0361,1.0361 -0.51805,1.94269 V -1.94269 C 1.0361,-1.0361 3.28098,-0.25902 4.66248,0"
       style="fill:#000000;fill-opacity:1;fill-rule:nonzero;stroke:none"
       transform="matrix(0.59626667,-1.1925067,-1.1925067,-0.59626667,59.476467,35.10528)" />
    <path
       id="path72"
       d="M -40.18938,5.16954 -11.54042,33.8175"
       style="fill:none;stroke:#000000;stroke-width:0.79701;stroke-linecap:butt;stroke-linejoin:miter;stroke-miterlimit:10;stroke-dasharray:none;stroke-opacity:1"
       transform="matrix(1.3333333,0,0,-1.3333333,69.208,136.596)" />
    <path
       id="path73"
       d="M 4.66248,0 C 3.28098,0.25902 1.0361,1.0361 -0.51805,1.94269 V -1.94269 C 1.0361,-1.0361 3.28098,-0.25902 4.66248,0"
       style="fill:#000000;fill-opacity:1;fill-rule:nonzero;stroke:none"
       transform="matrix(0.9428,-0.94277333,-0.94277333,-0.9428,53.820747,91.506013)" />
    <path
       id="path74"
       d="m -38.85526,0 h 22.53463"
       style="fill:none;stroke:#000000;stroke-width:0.79701;stroke-linecap:butt;stroke-linejoin:miter;stroke-miterlimit:10;stroke-dasharray:none;stroke-opacity:1"
       transform="matrix(1.3333333,0,0,-1.3333333,69.208,136.596)" />
    <path
       id="path75"
       d="M 4.66248,0 C 3.28098,0.25902 1.0361,1.0361 -0.51805,1.94269 V -1.94269 C 1.0361,-1.0361 3.28098,-0.25902 4.66248,0"
       style="fill:#000000;fill-opacity:1;fill-rule:nonzero;stroke:none"
       transform="matrix(1.3333333,0,0,-1.3333333,47.44716,136.596)" />
  </g>
</svg>
