<?xml version="1.0" encoding="UTF-8" standalone="no"?>
<!-- Created with Inkscape (http://www.inkscape.org/) -->

<svg
   version="1.1"
   id="svg1"
   width="240.25551"
   height="245.35425"
   viewBox="0 0 240.25551 245.35425"
   xmlns="http://www.w3.org/2000/svg"
   xmlns:svg="http://www.w3.org/2000/svg">
  <defs
     id="defs1" />
  <g
     id="g1"
     transform="translate(0.00115751,-13.307388)">
    <path
       id="path1"
       d="m 14.17339,113.38724 c 0,7.82783 -6.34555,14.17338 -14.17339,14.17338 -7.82784,0 -14.17339,-6.34555 -14.17339,-14.17338 0,-7.82785 6.34555,-14.1734 14.17339,-14.1734 7.82784,0 14.17339,6.34555 14.17339,14.1734 z"
       style="fill:none;stroke:#000000;stroke-width:0.79701;stroke-linecap:butt;stroke-linejoin:miter;stroke-miterlimit:10;stroke-dasharray:none;stroke-opacity:1"
       transform="matrix(1.3333333,0,0,-1.3333333,86.426667,211.576)" />
    <g
       id="g2"
       aria-label="x&#10;1"
       transform="matrix(1.3333333,0,0,1.3333333,79.650667,62.258667)">
      <path
         id="path2"
         d="m 3.3293828,-3.0123594 c 0.058594,-0.2578125 0.2929688,-1.171875 0.984375,-1.171875 0.046875,0 0.2929688,0 0.5039063,0.1289063 -0.28125,0.046875 -0.4804688,0.3046875 -0.4804688,0.5390625 0,0.1640625 0.1054688,0.3515625 0.375,0.3515625 0.2226563,0 0.5390625,-0.1875 0.5390625,-0.5859375 0,-0.515625 -0.5859375,-0.65625 -0.9257812,-0.65625 -0.5742188,0 -0.9257813,0.5273437 -1.0429688,0.7617187 -0.2578125,-0.65625 -0.7851562,-0.7617187 -1.078125,-0.7617187 -1.0429687,0 -1.60546874,1.2890625 -1.60546874,1.5351562 0,0.1054688 0.10546875,0.1054688 0.1171875,0.1054688 0.0820313,0 0.1171875,-0.023437 0.12890625,-0.1171875 0.33984379,-1.0546875 0.99609379,-1.3007813 1.33593749,-1.3007813 0.1875,0 0.5390625,0.09375 0.5390625,0.6679688 0,0.3046875 -0.1640625,0.9726562 -0.5390625,2.3671875 -0.1523437,0.62109373 -0.5039062,1.04296873 -0.9492187,1.04296873 -0.058594,0 -0.28125004,0 -0.49218754,-0.12890625 0.24609375,-0.0585937 0.46875004,-0.26953125 0.46875004,-0.5390625 0,-0.26953128 -0.22265629,-0.35156248 -0.37500004,-0.35156248 -0.29296875,0 -0.5390625,0.25781248 -0.5390625,0.57421873 0,0.45703125 0.4921875,0.65625 0.93750004,0.65625 0.65625,0 1.0078125,-0.69140625 1.0429687,-0.75 0.1171875,0.36328125 0.4804688,0.75 1.078125,0.75 1.0195313,0 1.59375,-1.27734373 1.59375,-1.53515623 0,-0.09375 -0.09375,-0.09375 -0.1289062,-0.09375 -0.082031,0 -0.1054688,0.035156 -0.1289063,0.1054687 -0.328125,1.06640628 -0.9960937,1.31250003 -1.3242187,1.31250003 -0.3867188,0 -0.5390625,-0.328125 -0.5390625,-0.65625 0,-0.22265625 0.058594,-0.44531253 0.1640625,-0.87890623 z m 0,0"
         style="fill:#000000;fill-opacity:1;fill-rule:nonzero;stroke:none" />
      <path
         id="path3"
         d="m 8.0256719,-2.9361875 c 0,-0.1875 -0.011719,-0.1992187 -0.2109375,-0.1992187 -0.4453125,0.4335937 -1.078125,0.4453125 -1.359375,0.4453125 V -2.444 c 0.1640625,0 0.6210937,0 1.0078125,-0.1875 v 3.55078125 c 0,0.23437505 0,0.32812505 -0.6914063,0.32812505 H 6.5022344 V 1.4935 c 0.1289062,-0.011719 0.984375,-0.023437 1.2421875,-0.023437 0.2109375,0 1.0898437,0.011719 1.2421875,0.023437 V 1.2474063 H 8.7287969 c -0.703125,0 -0.703125,-0.09375 -0.703125,-0.32812505 z m 0,0"
         style="fill:#000000;fill-opacity:1;fill-rule:nonzero;stroke:none" />
    </g>
    <path
       id="path4"
       d="M 14.17339,56.69362 C 14.17339,64.52145 7.82784,70.867 0,70.867 c -7.82784,0 -14.17339,-6.34555 -14.17339,-14.17338 0,-7.82785 6.34555,-14.1734 14.17339,-14.1734 7.82784,0 14.17339,6.34555 14.17339,14.1734 z"
       style="fill:none;stroke:#000000;stroke-width:0.79701;stroke-linecap:butt;stroke-linejoin:miter;stroke-miterlimit:10;stroke-dasharray:none;stroke-opacity:1"
       transform="matrix(1.3333333,0,0,-1.3333333,86.426667,211.576)" />
    <g
       id="g4"
       aria-label="x&#10;2"
       transform="matrix(1.3333333,0,0,1.3333333,79.650667,137.84933)">
      <path
         id="path5"
         d="m 3.3293828,-3.0129766 c 0.058594,-0.2578125 0.2929688,-1.171875 0.984375,-1.171875 0.046875,0 0.2929688,0 0.5039063,0.1289063 -0.28125,0.046875 -0.4804688,0.3046875 -0.4804688,0.5390625 0,0.1640625 0.1054688,0.3515625 0.375,0.3515625 0.2226563,0 0.5390625,-0.1875 0.5390625,-0.5859375 0,-0.515625 -0.5859375,-0.65625 -0.9257812,-0.65625 -0.5742188,0 -0.9257813,0.5273437 -1.0429688,0.7617187 -0.2578125,-0.65625 -0.7851562,-0.7617187 -1.078125,-0.7617187 -1.0429687,0 -1.60546874,1.2890625 -1.60546874,1.5351562 0,0.1054688 0.10546875,0.1054688 0.1171875,0.1054688 0.0820313,0 0.1171875,-0.023437 0.12890625,-0.1171875 0.33984379,-1.0546875 0.99609379,-1.3007813 1.33593749,-1.3007813 0.1875,0 0.5390625,0.09375 0.5390625,0.6679688 0,0.3046875 -0.1640625,0.9726562 -0.5390625,2.3671875 -0.1523437,0.62109374 -0.5039062,1.04296874 -0.9492187,1.04296874 -0.058594,0 -0.28125004,0 -0.49218754,-0.12890625 0.24609375,-0.0585938 0.46875004,-0.26953125 0.46875004,-0.5390625 0,-0.26953129 -0.22265629,-0.35156249 -0.37500004,-0.35156249 -0.29296875,0 -0.5390625,0.25781249 -0.5390625,0.57421874 0,0.45703125 0.4921875,0.65625 0.93750004,0.65625 0.65625,0 1.0078125,-0.69140625 1.0429687,-0.75 0.1171875,0.36328125 0.4804688,0.75 1.078125,0.75 1.0195313,0 1.59375,-1.27734374 1.59375,-1.53515624 0,-0.09375 -0.09375,-0.09375 -0.1289062,-0.09375 -0.082031,0 -0.1054688,0.035156 -0.1289063,0.1054687 -0.328125,1.06640629 -0.9960937,1.31250004 -1.3242187,1.31250004 -0.3867188,0 -0.5390625,-0.328125 -0.5390625,-0.65625 0,-0.22265625 0.058594,-0.44531254 0.1640625,-0.87890624 z m 0,0"
         style="fill:#000000;fill-opacity:1;fill-rule:nonzero;stroke:none" />
      <path
         id="path6"
         d="m 9.2092656,0.22725781 h -0.234375 c -0.023437,0.15234375 -0.082031,0.5625 -0.1757812,0.6328125 -0.058594,0.0351563 -0.5976563,0.0351563 -0.6914063,0.0351563 H 6.8186406 c 0.7382813,-0.64453125 0.984375,-0.84375 1.3945313,-1.171875 0.515625,-0.41015625 0.9960937,-0.84374991 0.9960937,-1.49999991 0,-0.8437501 -0.7382812,-1.3593751 -1.6289062,-1.3593751 -0.8671875,0 -1.453125,0.609375 -1.453125,1.2421876 0,0.3632812 0.3046875,0.3984375 0.375,0.3984375 0.1640625,0 0.375,-0.1171875 0.375,-0.375 0,-0.1289063 -0.058594,-0.3632814 -0.421875,-0.3632814 0.2226562,-0.5039062 0.6914062,-0.65625 1.0195312,-0.65625 0.703125,0 1.0664063,0.5507813 1.0664063,1.1132813 0,0.609375 -0.4335938,1.08984376 -0.65625,1.33593751 l -1.6875,1.66406249 c -0.070312,0.058594 -0.070312,0.070312 -0.070312,0.2695312 h 2.8828125 z m 0,0"
         style="fill:#000000;fill-opacity:1;fill-rule:nonzero;stroke:none" />
    </g>
    <path
       id="path7"
       d="M 14.17339,0 C 14.17339,7.82784 7.82784,14.17339 0,14.17339 -7.82784,14.17339 -14.17339,7.82784 -14.17339,0 c 0,-7.82784 6.34555,-14.17339 14.17339,-14.17339 7.82784,0 14.17339,6.34555 14.17339,14.17339 z"
       style="fill:none;stroke:#000000;stroke-width:0.79701;stroke-linecap:butt;stroke-linejoin:miter;stroke-miterlimit:10;stroke-dasharray:none;stroke-opacity:1"
       transform="matrix(1.3333333,0,0,-1.3333333,86.426667,211.576)" />
    <g
       id="g7"
       aria-label="x&#10;3"
       transform="matrix(1.3333333,0,0,1.3333333,79.650667,213.44)">
      <path
         id="path8"
         d="m 3.3293828,-3.0106641 c 0.058594,-0.2578125 0.2929688,-1.171875 0.984375,-1.171875 0.046875,0 0.2929688,0 0.5039063,0.1289063 -0.28125,0.046875 -0.4804688,0.3046875 -0.4804688,0.5390625 0,0.1640625 0.1054688,0.3515625 0.375,0.3515625 0.2226563,0 0.5390625,-0.1875 0.5390625,-0.5859375 0,-0.515625 -0.5859375,-0.65625 -0.9257812,-0.65625 -0.5742188,0 -0.9257813,0.5273437 -1.0429688,0.7617187 -0.2578125,-0.65625 -0.7851562,-0.7617187 -1.078125,-0.7617187 -1.0429687,0 -1.60546874,1.2890625 -1.60546874,1.5351562 0,0.1054688 0.10546875,0.1054688 0.1171875,0.1054688 0.0820313,0 0.1171875,-0.023437 0.12890625,-0.1171875 0.33984379,-1.0546875 0.99609379,-1.3007813 1.33593749,-1.3007813 0.1875,0 0.5390625,0.09375 0.5390625,0.6679688 0,0.3046875 -0.1640625,0.9726562 -0.5390625,2.3671875 -0.1523437,0.62109374 -0.5039062,1.04296874 -0.9492187,1.04296874 -0.058594,0 -0.28125004,0 -0.49218754,-0.12890625 0.24609375,-0.0585937 0.46875004,-0.26953125 0.46875004,-0.5390625 0,-0.26953129 -0.22265629,-0.35156249 -0.37500004,-0.35156249 -0.29296875,0 -0.5390625,0.25781249 -0.5390625,0.57421874 0,0.45703125 0.4921875,0.65625 0.93750004,0.65625 0.65625,0 1.0078125,-0.69140625 1.0429687,-0.75 0.1171875,0.36328125 0.4804688,0.75 1.078125,0.75 1.0195313,0 1.59375,-1.27734374 1.59375,-1.53515624 0,-0.09375 -0.09375,-0.09375 -0.1289062,-0.09375 -0.082031,0 -0.1054688,0.035156 -0.1289063,0.1054687 -0.328125,1.06640629 -0.9960937,1.31250004 -1.3242187,1.31250004 -0.3867188,0 -0.5390625,-0.328125 -0.5390625,-0.65625 0,-0.22265625 0.058594,-0.44531254 0.1640625,-0.87890624 z m 0,0"
         style="fill:#000000;fill-opacity:1;fill-rule:nonzero;stroke:none" />
      <path
         id="path9"
         d="m 7.5920781,-0.83683594 c 0.5507813,0 0.9375,0.375 0.9375,1.125 0,0.86718754 -0.5039062,1.12500004 -0.9023437,1.12500004 -0.28125,0 -0.890625,-0.082031 -1.1835938,-0.49218754 0.328125,-0.0117188 0.3984375,-0.24609375 0.3984375,-0.38671875 0,-0.22265625 -0.1640625,-0.38671875 -0.3867187,-0.38671875 -0.1875,0 -0.3867188,0.1171875 -0.3867188,0.41015625 0,0.65624999 0.7265625,1.07812499 1.5703125,1.07812499 0.9726563,0 1.640625,-0.64453124 1.640625,-1.34765624 0,-0.5390625 -0.4453125,-1.08984375 -1.21875,-1.2421875 0.7382813,-0.26953126 0.9960938,-0.79687496 0.9960938,-1.21874996 0,-0.5507813 -0.6328125,-0.9609375 -1.40625,-0.9609375 -0.7734375,0 -1.359375,0.375 -1.359375,0.9375 0,0.234375 0.1523437,0.3632812 0.3632812,0.3632812 0.2109375,0 0.3515625,-0.1640625 0.3515625,-0.3515625 0,-0.1992187 -0.140625,-0.3515625 -0.3515625,-0.3632812 0.234375,-0.3046875 0.7148438,-0.3867188 0.9726563,-0.3867188 0.3164062,0 0.7617187,0.1523438 0.7617187,0.7617188 0,0.2929687 -0.1054687,0.609375 -0.28125,0.8320312 -0.234375,0.2578125 -0.421875,0.28125 -0.7734375,0.2929688 -0.1757812,0.023437 -0.1875,0.023437 -0.2226562,0.023437 -0.011719,0 -0.070312,0.011719 -0.070312,0.09375 0,0.09375 0.058594,0.09375 0.1757812,0.09375 z m 0,0"
         style="fill:#000000;fill-opacity:1;fill-rule:nonzero;stroke:none" />
    </g>
    <path
       id="path10"
       d="m 99.21382,113.38724 c 0,7.82783 -6.34555,14.17338 -14.1734,14.17338 -7.82785,0 -14.1734,-6.34555 -14.1734,-14.17338 0,-7.82785 6.34555,-14.1734 14.1734,-14.1734 7.82785,0 14.1734,6.34555 14.1734,14.1734 z"
       style="fill:none;stroke:#000000;stroke-width:0.79701;stroke-linecap:butt;stroke-linejoin:miter;stroke-miterlimit:10;stroke-dasharray:none;stroke-opacity:1"
       transform="matrix(1.3333333,0,0,-1.3333333,86.426667,211.576)" />
    <g
       id="g10"
       aria-label="x&#10;4"
       transform="matrix(1.3333333,0,0,1.3333333,193.03733,62.258667)">
      <path
         id="path11"
         d="m 3.3294219,-3.0123594 c 0.058594,-0.2578125 0.2929687,-1.171875 0.984375,-1.171875 0.046875,0 0.2929687,0 0.5039062,0.1289063 -0.28125,0.046875 -0.4804687,0.3046875 -0.4804687,0.5390625 0,0.1640625 0.1054687,0.3515625 0.375,0.3515625 0.2226562,0 0.5390625,-0.1875 0.5390625,-0.5859375 0,-0.515625 -0.5859375,-0.65625 -0.9257813,-0.65625 -0.5742187,0 -0.9257812,0.5273437 -1.0429687,0.7617187 -0.2578125,-0.65625 -0.7851563,-0.7617187 -1.078125,-0.7617187 -1.0429688,0 -1.60546877,1.2890625 -1.60546877,1.5351562 0,0.1054688 0.10546875,0.1054688 0.1171875,0.1054688 0.0820313,0 0.1171875,-0.023437 0.12890625,-0.1171875 0.33984372,-1.0546875 0.99609372,-1.3007813 1.33593752,-1.3007813 0.1875,0 0.5390625,0.09375 0.5390625,0.6679688 0,0.3046875 -0.1640625,0.9726562 -0.5390625,2.3671875 -0.1523438,0.62109373 -0.5039063,1.04296873 -0.9492188,1.04296873 -0.058594,0 -0.28124997,0 -0.49218747,-0.12890625 0.24609375,-0.0585937 0.46874997,-0.26953125 0.46874997,-0.5390625 0,-0.26953128 -0.22265622,-0.35156248 -0.37499997,-0.35156248 -0.29296875,0 -0.5390625,0.25781248 -0.5390625,0.57421873 0,0.45703125 0.4921875,0.65625 0.93749997,0.65625 0.65625,0 1.0078125,-0.69140625 1.0429688,-0.75 0.1171875,0.36328125 0.4804687,0.75 1.078125,0.75 1.0195312,0 1.59375,-1.27734373 1.59375,-1.53515623 0,-0.09375 -0.09375,-0.09375 -0.1289063,-0.09375 -0.082031,0 -0.1054687,0.035156 -0.1289062,0.1054687 -0.328125,1.06640628 -0.9960938,1.31250003 -1.3242188,1.31250003 -0.3867187,0 -0.5390625,-0.328125 -0.5390625,-0.65625 0,-0.22265625 0.058594,-0.44531253 0.1640625,-0.87890623 z m 0,0"
         style="fill:#000000;fill-opacity:1;fill-rule:nonzero;stroke:none" />
      <path
         id="path12"
         d="M 9.3850859,0.3450625 V 0.09896875 H 8.6116484 V -3.0065 c 0,-0.1523437 0,-0.1992187 -0.1523437,-0.1992187 -0.09375,0 -0.1171875,0 -0.1875,0.09375 L 5.9632109,0.09896875 V 0.3450625 h 2.0507813 v 0.57421875 c 0,0.23437505 0,0.32812505 -0.5625,0.32812505 h -0.1875 V 1.4935 c 0.3515625,-0.011719 0.796875,-0.023437 1.0429687,-0.023437 0.2578125,0 0.703125,0.011719 1.0546875,0.023437 V 1.2474063 h -0.1875 c -0.5625,0 -0.5625,-0.09375 -0.5625,-0.32812505 V 0.3450625 Z M 8.0608672,-2.4557187 V 0.09896875 H 6.2210234 Z m 0,0"
         style="fill:#000000;fill-opacity:1;fill-rule:nonzero;stroke:none" />
    </g>
    <path
       id="path13"
       d="m 99.21382,56.69362 c 0,7.82783 -6.34555,14.17338 -14.1734,14.17338 -7.82785,0 -14.1734,-6.34555 -14.1734,-14.17338 0,-7.82785 6.34555,-14.1734 14.1734,-14.1734 7.82785,0 14.1734,6.34555 14.1734,14.1734 z"
       style="fill:none;stroke:#000000;stroke-width:0.79701;stroke-linecap:butt;stroke-linejoin:miter;stroke-miterlimit:10;stroke-dasharray:none;stroke-opacity:1"
       transform="matrix(1.3333333,0,0,-1.3333333,86.426667,211.576)" />
    <g
       id="g13"
       aria-label="x&#10;5"
       transform="matrix(1.3333333,0,0,1.3333333,193.03733,137.84933)">
      <path
         id="path14"
         d="m 3.3294219,-3.0129766 c 0.058594,-0.2578125 0.2929687,-1.171875 0.984375,-1.171875 0.046875,0 0.2929687,0 0.5039062,0.1289063 -0.28125,0.046875 -0.4804687,0.3046875 -0.4804687,0.5390625 0,0.1640625 0.1054687,0.3515625 0.375,0.3515625 0.2226562,0 0.5390625,-0.1875 0.5390625,-0.5859375 0,-0.515625 -0.5859375,-0.65625 -0.9257813,-0.65625 -0.5742187,0 -0.9257812,0.5273437 -1.0429687,0.7617187 -0.2578125,-0.65625 -0.7851563,-0.7617187 -1.078125,-0.7617187 -1.0429688,0 -1.60546877,1.2890625 -1.60546877,1.5351562 0,0.1054688 0.10546875,0.1054688 0.1171875,0.1054688 0.0820313,0 0.1171875,-0.023437 0.12890625,-0.1171875 0.33984372,-1.0546875 0.99609372,-1.3007813 1.33593752,-1.3007813 0.1875,0 0.5390625,0.09375 0.5390625,0.6679688 0,0.3046875 -0.1640625,0.9726562 -0.5390625,2.3671875 -0.1523438,0.62109374 -0.5039063,1.04296874 -0.9492188,1.04296874 -0.058594,0 -0.28124997,0 -0.49218747,-0.12890625 0.24609375,-0.0585938 0.46874997,-0.26953125 0.46874997,-0.5390625 0,-0.26953129 -0.22265622,-0.35156249 -0.37499997,-0.35156249 -0.29296875,0 -0.5390625,0.25781249 -0.5390625,0.57421874 0,0.45703125 0.4921875,0.65625 0.93749997,0.65625 0.65625,0 1.0078125,-0.69140625 1.0429688,-0.75 0.1171875,0.36328125 0.4804687,0.75 1.078125,0.75 1.0195312,0 1.59375,-1.27734374 1.59375,-1.53515624 0,-0.09375 -0.09375,-0.09375 -0.1289063,-0.09375 -0.082031,0 -0.1054687,0.035156 -0.1289062,0.1054687 -0.328125,1.06640629 -0.9960938,1.31250004 -1.3242188,1.31250004 -0.3867187,0 -0.5390625,-0.328125 -0.5390625,-0.65625 0,-0.22265625 0.058594,-0.44531254 0.1640625,-0.87890624 z m 0,0"
         style="fill:#000000;fill-opacity:1;fill-rule:nonzero;stroke:none" />
      <path
         id="path15"
         d="m 6.7718047,-2.3977422 c 0.3632812,0.09375 0.5625,0.09375 0.6796875,0.09375 0.9140625,0 1.4648437,-0.6328125 1.4648437,-0.7382812 0,-0.070312 -0.046875,-0.09375 -0.082031,-0.09375 -0.011719,0 -0.035156,0 -0.058594,0.023437 -0.1640625,0.058594 -0.5390625,0.1992187 -1.0546875,0.1992187 -0.1992187,0 -0.5625,-0.011719 -1.0195312,-0.1875 -0.070312,-0.035156 -0.082031,-0.035156 -0.082031,-0.035156 -0.09375,0 -0.09375,0.070312 -0.09375,0.1875 v 2.06249996 c 0,0.1171875 0,0.19921875 0.1054688,0.19921875 0.070312,0 0.070312,-0.0117188 0.140625,-0.10546875 0.3046875,-0.37499996 0.7265625,-0.43359376 0.9726562,-0.43359376 0.421875,0 0.609375,0.33984376 0.6445313,0.38671876 0.1171875,0.234375 0.1640625,0.50390625 0.1640625,0.90234375 0,0.2109375 0,0.62109375 -0.2109375,0.92578125 C 8.1663362,1.2467888 7.8733675,1.4108513 7.521805,1.4108513 c -0.4453125,0 -0.9140625,-0.2578125 -1.0898438,-0.71484379 0.2695313,0.0234375 0.3984375,-0.15234375 0.3984375,-0.33984375 0,-0.3046875 -0.2578125,-0.3515625 -0.3515625,-0.3515625 -0.011719,0 -0.3515625,0 -0.3515625,0.375 0,0.62109374 0.5742188,1.25390624 1.4179688,1.25390624 0.890625,0 1.6640625,-0.66796874 1.6640625,-1.54687499 0,-0.78515625 -0.5976563,-1.51171871 -1.453125,-1.51171871 -0.3164063,0 -0.6796875,0.082031 -0.984375,0.3398437 z m 0,0"
         style="fill:#000000;fill-opacity:1;fill-rule:nonzero;stroke:none" />
    </g>
    <path
       id="path16"
       d="m 99.21382,0 c 0,7.82784 -6.34555,14.17339 -14.1734,14.17339 -7.82785,0 -14.1734,-6.34555 -14.1734,-14.17339 0,-7.82784 6.34555,-14.17339 14.1734,-14.17339 7.82785,0 14.1734,6.34555 14.1734,14.17339 z"
       style="fill:none;stroke:#000000;stroke-width:0.79701;stroke-linecap:butt;stroke-linejoin:miter;stroke-miterlimit:10;stroke-dasharray:none;stroke-opacity:1"
       transform="matrix(1.3333333,0,0,-1.3333333,86.426667,211.576)" />
    <g
       id="g16"
       aria-label="x&#10;6"
       transform="matrix(1.3333333,0,0,1.3333333,193.03733,213.44)">
      <path
         id="path17"
         d="m 3.3294219,-3.0106641 c 0.058594,-0.2578125 0.2929687,-1.171875 0.984375,-1.171875 0.046875,0 0.2929687,0 0.5039062,0.1289063 -0.28125,0.046875 -0.4804687,0.3046875 -0.4804687,0.5390625 0,0.1640625 0.1054687,0.3515625 0.375,0.3515625 0.2226562,0 0.5390625,-0.1875 0.5390625,-0.5859375 0,-0.515625 -0.5859375,-0.65625 -0.9257813,-0.65625 -0.5742187,0 -0.9257812,0.5273437 -1.0429687,0.7617187 -0.2578125,-0.65625 -0.7851563,-0.7617187 -1.078125,-0.7617187 -1.0429688,0 -1.60546877,1.2890625 -1.60546877,1.5351562 0,0.1054688 0.10546875,0.1054688 0.1171875,0.1054688 0.0820313,0 0.1171875,-0.023437 0.12890625,-0.1171875 0.33984372,-1.0546875 0.99609372,-1.3007813 1.33593752,-1.3007813 0.1875,0 0.5390625,0.09375 0.5390625,0.6679688 0,0.3046875 -0.1640625,0.9726562 -0.5390625,2.3671875 -0.1523438,0.62109374 -0.5039063,1.04296874 -0.9492188,1.04296874 -0.058594,0 -0.28124997,0 -0.49218747,-0.12890625 0.24609375,-0.0585937 0.46874997,-0.26953125 0.46874997,-0.5390625 0,-0.26953129 -0.22265622,-0.35156249 -0.37499997,-0.35156249 -0.29296875,0 -0.5390625,0.25781249 -0.5390625,0.57421874 0,0.45703125 0.4921875,0.65625 0.93749997,0.65625 0.65625,0 1.0078125,-0.69140625 1.0429688,-0.75 0.1171875,0.36328125 0.4804687,0.75 1.078125,0.75 1.0195312,0 1.59375,-1.27734374 1.59375,-1.53515624 0,-0.09375 -0.09375,-0.09375 -0.1289063,-0.09375 -0.082031,0 -0.1054687,0.035156 -0.1289062,0.1054687 -0.328125,1.06640629 -0.9960938,1.31250004 -1.3242188,1.31250004 -0.3867187,0 -0.5390625,-0.328125 -0.5390625,-0.65625 0,-0.22265625 0.058594,-0.44531254 0.1640625,-0.87890624 z m 0,0"
         style="fill:#000000;fill-opacity:1;fill-rule:nonzero;stroke:none" />
      <path
         id="path18"
         d="m 6.7366484,-0.78996094 c 0,-0.56249996 0.046875,-1.07812496 0.3164063,-1.51171876 0.234375,-0.375 0.609375,-0.6328125 1.0546875,-0.6328125 0.2109375,0 0.4921875,0.058594 0.6328125,0.2460938 -0.1757813,0.011719 -0.3164063,0.1289062 -0.3164063,0.3398437 0,0.1640625 0.1171875,0.328125 0.328125,0.328125 0.1992188,0 0.328125,-0.140625 0.328125,-0.3515625 0,-0.3984375 -0.2929687,-0.7617187 -0.984375,-0.7617187 -0.9960937,0 -2.0273437,0.9140625 -2.0273437,2.41406246 0,1.80468754 0.8554687,2.35546874 1.6171875,2.35546874 0.8554687,0 1.59375,-0.64453124 1.59375,-1.55859374 0,-0.890625 -0.703125,-1.54687496 -1.5234375,-1.54687496 -0.5507813,0 -0.8671875,0.375 -1.0195313,0.67968746 z M 7.6858672,1.4131641 c -0.3515625,0 -0.6210938,-0.1992188 -0.7617188,-0.51562504 C 6.8186797,0.69832031 6.7600859,0.34675781 6.7600859,-0.07511719 c 0,-0.6796875 0.4101563,-1.19531251 0.9609375,-1.19531251 0.328125,0 0.5390625,0.1171875 0.7148438,0.38671876 0.1640625,0.2578125 0.1757812,0.55078125 0.1757812,0.9609375 0,0.3984375 0,0.69140625 -0.1875,0.96093754 -0.1757812,0.2460937 -0.3984375,0.375 -0.7382812,0.375 z m 0,0"
         style="fill:#000000;fill-opacity:1;fill-rule:nonzero;stroke:none" />
    </g>
    <path
       id="path19"
       d="m -64.5718,107.17471 h 15.75636 v 12.42502 H -64.5718 Z"
       style="fill:#ccccff;fill-opacity:1;fill-rule:nonzero;stroke:#8080ff;stroke-width:0.49814;stroke-linecap:butt;stroke-linejoin:miter;stroke-miterlimit:10;stroke-dasharray:none;stroke-opacity:1"
       transform="matrix(1.3333333,0,0,-1.3333333,86.426667,211.576)" />
    <g
       id="g19"
       aria-label="ε&#10;1"
       transform="matrix(1.3333333,0,0,1.3333333,4.76,62.258667)">
      <path
         id="path20"
         d="m 1.4075391,-2.2623594 c 0.328125,0.140625 0.6210937,0.140625 0.8554687,0.140625 0.2578125,0 0.8085938,0 0.8085938,-0.3046875 0,-0.2460937 -0.3515625,-0.2695312 -0.7265625,-0.2695312 -0.2109375,0 -0.5625,0.011719 -0.9257813,0.1875 -0.234375,-0.1171875 -0.3984375,-0.3164063 -0.3984375,-0.5859375 0,-0.5976563 0.9726563,-0.9609375 1.875,-0.9609375 0.1523438,0 0.515625,0 0.9140625,0.28125 0.1054688,0.082031 0.1289063,0.09375 0.1992188,0.09375 0.1289062,0 0.2695312,-0.1289063 0.2695312,-0.2695313 0,-0.1875 -0.609375,-0.5625 -1.2890625,-0.5625 -1.1484375,0 -2.22656249,0.6679688 -2.22656249,1.4179688 0,0.4335937 0.36328129,0.6796875 0.39843749,0.7148437 -0.58593749,0.328125 -0.90234374,0.8789063 -0.90234374,1.3476563 0,0.64453123 0.57421875,1.25390623 1.62890624,1.25390623 1.3125,0 1.8632813,-0.87890625 1.8632813,-1.03125 0,-0.0585938 -0.046875,-0.09375 -0.1054688,-0.09375 -0.046875,0 -0.082031,0.0351563 -0.09375,0.0703125 -0.140625,0.22265625 -0.3867187,0.59765625 -1.5820312,0.59765625 -0.609375,0 -1.45312504,-0.15234375 -1.45312504,-0.86718748 0,-0.328125 0.28125,-0.8554688 0.89062504,-1.1601563 z m 0.328125,-0.1289062 c 0.2226562,-0.082031 0.4335937,-0.09375 0.609375,-0.09375 0.2460937,0 0.28125,0.011719 0.46875,0.058594 -0.1523438,0.070312 -0.1757813,0.082031 -0.5507813,0.082031 -0.2226562,0 -0.3398437,0 -0.5273437,-0.046875 z m 0,0"
         style="fill:#000000;fill-opacity:1;fill-rule:nonzero;stroke:none" />
      <path
         id="path21"
         d="m 6.976875,-2.9361875 c 0,-0.1875 -0.011719,-0.1992187 -0.2109375,-0.1992187 -0.4453125,0.4335937 -1.078125,0.4453125 -1.359375,0.4453125 V -2.444 c 0.1640625,0 0.6210938,0 1.0078125,-0.1875 v 3.55078125 c 0,0.23437505 0,0.32812505 -0.6914062,0.32812505 H 5.4534375 V 1.4935 C 5.5823438,1.481781 6.4378125,1.470063 6.695625,1.470063 c 0.2109375,0 1.0898438,0.011719 1.2421875,0.023437 V 1.2474063 H 7.68 c -0.703125,0 -0.703125,-0.09375 -0.703125,-0.32812505 z m 0,0"
         style="fill:#000000;fill-opacity:1;fill-rule:nonzero;stroke:none" />
    </g>
    <path
       id="path22"
       d="m -64.5718,50.4811 h 15.75636 V 62.90612 H -64.5718 Z"
       style="fill:#ccccff;fill-opacity:1;fill-rule:nonzero;stroke:#8080ff;stroke-width:0.49814;stroke-linecap:butt;stroke-linejoin:miter;stroke-miterlimit:10;stroke-dasharray:none;stroke-opacity:1"
       transform="matrix(1.3333333,0,0,-1.3333333,86.426667,211.576)" />
    <g
       id="g22"
       aria-label="ε&#10;2"
       transform="matrix(1.3333333,0,0,1.3333333,4.76,137.84933)">
      <path
         id="path23"
         d="m 1.4075391,-2.2629766 c 0.328125,0.140625 0.6210937,0.140625 0.8554687,0.140625 0.2578125,0 0.8085938,0 0.8085938,-0.3046875 0,-0.2460937 -0.3515625,-0.2695312 -0.7265625,-0.2695312 -0.2109375,0 -0.5625,0.011719 -0.9257813,0.1875 -0.234375,-0.1171875 -0.3984375,-0.3164063 -0.3984375,-0.5859375 0,-0.5976563 0.9726563,-0.9609375 1.875,-0.9609375 0.1523438,0 0.515625,0 0.9140625,0.28125 0.1054688,0.082031 0.1289063,0.09375 0.1992188,0.09375 0.1289062,0 0.2695312,-0.1289063 0.2695312,-0.2695313 0,-0.1875 -0.609375,-0.5625 -1.2890625,-0.5625 -1.1484375,0 -2.22656249,0.6679688 -2.22656249,1.4179688 0,0.4335937 0.36328129,0.6796875 0.39843749,0.7148437 -0.58593749,0.328125 -0.90234374,0.8789063 -0.90234374,1.3476563 0,0.64453124 0.57421875,1.25390624 1.62890624,1.25390624 1.3125,0 1.8632813,-0.87890625 1.8632813,-1.03125 0,-0.0585938 -0.046875,-0.09375 -0.1054688,-0.09375 -0.046875,0 -0.082031,0.0351563 -0.09375,0.0703125 -0.140625,0.22265625 -0.3867187,0.59765625 -1.5820312,0.59765625 -0.609375,0 -1.45312504,-0.15234375 -1.45312504,-0.86718749 0,-0.328125 0.28125,-0.8554688 0.89062504,-1.1601563 z m 0.328125,-0.1289062 c 0.2226562,-0.082031 0.4335937,-0.09375 0.609375,-0.09375 0.2460937,0 0.28125,0.011719 0.46875,0.058594 -0.1523438,0.070312 -0.1757813,0.082031 -0.5507813,0.082031 -0.2226562,0 -0.3398437,0 -0.5273437,-0.046875 z m 0,0"
         style="fill:#000000;fill-opacity:1;fill-rule:nonzero;stroke:none" />
      <path
         id="path24"
         d="m 8.1604688,0.22725781 h -0.234375 c -0.023437,0.15234375 -0.082031,0.5625 -0.1757813,0.6328125 -0.058594,0.0351563 -0.5976562,0.0351563 -0.6914062,0.0351563 H 5.7698438 C 6.508125,0.25069531 6.7542188,0.05147656 7.164375,-0.27664844 7.68,-0.68680469 8.1604688,-1.1203984 8.1604688,-1.7766484 c 0,-0.84375 -0.7382813,-1.359375 -1.6289063,-1.359375 -0.8671875,0 -1.453125,0.609375 -1.453125,1.2421875 0,0.3632812 0.3046875,0.3984375 0.375,0.3984375 0.1640625,0 0.375,-0.1171875 0.375,-0.375 0,-0.1289063 -0.058594,-0.3632813 -0.421875,-0.3632813 0.2226563,-0.5039062 0.6914063,-0.65625 1.0195313,-0.65625 0.703125,0 1.0664062,0.5507813 1.0664062,1.1132813 0,0.609375 -0.4335937,1.08984371 -0.65625,1.33593746 L 5.14875,1.2233516 C 5.078438,1.2819456 5.078438,1.2936636 5.078438,1.4928828 H 7.96125 Z m 0,0"
         style="fill:#000000;fill-opacity:1;fill-rule:nonzero;stroke:none" />
    </g>
    <path
       id="path25"
       d="m -64.5718,-6.21251 h 15.75636 V 6.21251 H -64.5718 Z"
       style="fill:#ccccff;fill-opacity:1;fill-rule:nonzero;stroke:#8080ff;stroke-width:0.49814;stroke-linecap:butt;stroke-linejoin:miter;stroke-miterlimit:10;stroke-dasharray:none;stroke-opacity:1"
       transform="matrix(1.3333333,0,0,-1.3333333,86.426667,211.576)" />
    <g
       id="g25"
       aria-label="ε&#10;3"
       transform="matrix(1.3333333,0,0,1.3333333,4.76,213.44)">
      <path
         id="path26"
         d="m 1.4075391,-2.2606641 c 0.328125,0.140625 0.6210937,0.140625 0.8554687,0.140625 0.2578125,0 0.8085938,0 0.8085938,-0.3046875 0,-0.2460937 -0.3515625,-0.2695312 -0.7265625,-0.2695312 -0.2109375,0 -0.5625,0.011719 -0.9257813,0.1875 -0.234375,-0.1171875 -0.3984375,-0.3164063 -0.3984375,-0.5859375 0,-0.5976563 0.9726563,-0.9609375 1.875,-0.9609375 0.1523438,0 0.515625,0 0.9140625,0.28125 0.1054688,0.082031 0.1289063,0.09375 0.1992188,0.09375 0.1289062,0 0.2695312,-0.1289063 0.2695312,-0.2695313 0,-0.1875 -0.609375,-0.5625 -1.2890625,-0.5625 -1.1484375,0 -2.22656249,0.6679688 -2.22656249,1.4179688 0,0.4335937 0.36328129,0.6796875 0.39843749,0.7148437 -0.58593749,0.328125 -0.90234374,0.8789063 -0.90234374,1.3476563 0,0.64453124 0.57421875,1.25390624 1.62890624,1.25390624 1.3125,0 1.8632813,-0.87890625 1.8632813,-1.03125 0,-0.0585938 -0.046875,-0.09375 -0.1054688,-0.09375 -0.046875,0 -0.082031,0.0351563 -0.09375,0.0703125 -0.140625,0.22265625 -0.3867187,0.59765625 -1.5820312,0.59765625 -0.609375,0 -1.45312504,-0.15234375 -1.45312504,-0.86718749 0,-0.328125 0.28125,-0.8554688 0.89062504,-1.1601563 z m 0.328125,-0.1289062 c 0.2226562,-0.082031 0.4335937,-0.09375 0.609375,-0.09375 0.2460937,0 0.28125,0.011719 0.46875,0.058594 -0.1523438,0.070312 -0.1757813,0.082031 -0.5507813,0.082031 -0.2226562,0 -0.3398437,0 -0.5273437,-0.046875 z m 0,0"
         style="fill:#000000;fill-opacity:1;fill-rule:nonzero;stroke:none" />
      <path
         id="path27"
         d="m 6.5432813,-0.83683594 c 0.5507812,0 0.9375,0.375 0.9375,1.125 0,0.86718754 -0.5039063,1.12500004 -0.9023438,1.12500004 -0.28125,0 -0.890625,-0.082031 -1.1835937,-0.49218754 0.328125,-0.0117188 0.3984375,-0.24609375 0.3984375,-0.38671875 0,-0.22265625 -0.1640625,-0.38671875 -0.3867188,-0.38671875 -0.1875,0 -0.3867187,0.1171875 -0.3867187,0.41015625 0,0.65624999 0.7265625,1.07812499 1.5703125,1.07812499 0.9726562,0 1.640625,-0.64453124 1.640625,-1.34765624 0,-0.5390625 -0.4453125,-1.08984375 -1.21875,-1.2421875 C 7.7503125,-1.2235547 8.008125,-1.7508984 8.008125,-2.1727734 c 0,-0.5507813 -0.6328125,-0.9609375 -1.40625,-0.9609375 -0.7734375,0 -1.359375,0.375 -1.359375,0.9375 0,0.234375 0.1523438,0.3632812 0.3632813,0.3632812 0.2109375,0 0.3515625,-0.1640625 0.3515625,-0.3515625 0,-0.1992187 -0.140625,-0.3515625 -0.3515625,-0.3632812 0.234375,-0.3046875 0.7148437,-0.3867188 0.9726562,-0.3867188 0.3164063,0 0.7617188,0.1523438 0.7617188,0.7617188 0,0.2929687 -0.1054688,0.609375 -0.28125,0.8320312 -0.234375,0.2578125 -0.421875,0.28125 -0.7734375,0.2929688 -0.1757813,0.023437 -0.1875,0.023437 -0.2226563,0.023437 -0.011719,0 -0.070312,0.011719 -0.070312,0.09375 0,0.09375 0.058594,0.09375 0.1757813,0.09375 z m 0,0"
         style="fill:#000000;fill-opacity:1;fill-rule:nonzero;stroke:none" />
    </g>
    <path
       id="path28"
       d="M 0,98.81532 V 75.928"
       style="fill:none;stroke:#000000;stroke-width:0.79701;stroke-linecap:butt;stroke-linejoin:miter;stroke-miterlimit:10;stroke-dasharray:none;stroke-opacity:1"
       transform="matrix(1.3333333,0,0,-1.3333333,86.426667,211.576)" />
    <path
       id="path29"
       d="M 4.66248,0 C 3.28098,0.25902 1.0361,1.0361 -0.51805,1.94269 V -1.94269 C 1.0361,-1.0361 3.28098,-0.25902 4.66248,0"
       style="fill:#000000;fill-opacity:1;fill-rule:nonzero;stroke:none"
       transform="matrix(0,1.3333333,1.3333333,0,86.426667,110.33867)" />
    <path
       id="path30"
       d="M 10.3039,103.08333 C 35.88794,77.49928 35.88794,35.88794 13.60077,13.60077"
       style="fill:none;stroke:#000000;stroke-width:0.79701;stroke-linecap:butt;stroke-linejoin:miter;stroke-miterlimit:10;stroke-dasharray:none;stroke-opacity:1"
       transform="matrix(1.3333333,0,0,-1.3333333,86.426667,211.576)" />
    <path
       id="path31"
       d="M 4.66248,0 C 3.28098,0.25902 1.0361,1.0361 -0.51805,1.94269 V -1.94269 C 1.0361,-1.0361 3.28098,-0.25902 4.66248,0"
       style="fill:#000000;fill-opacity:1;fill-rule:nonzero;stroke:none"
       transform="matrix(-0.9428,0.9428,0.9428,0.9428,104.56104,193.44163)" />
    <path
       id="path32"
       d="M 0,42.1217 V 19.23438"
       style="fill:none;stroke:#000000;stroke-width:0.79701;stroke-linecap:butt;stroke-linejoin:miter;stroke-miterlimit:10;stroke-dasharray:none;stroke-opacity:1"
       transform="matrix(1.3333333,0,0,-1.3333333,86.426667,211.576)" />
    <path
       id="path33"
       d="M 4.66248,0 C 3.28098,0.25902 1.0361,1.0361 -0.51805,1.94269 V -1.94269 C 1.0361,-1.0361 3.28098,-0.25902 4.66248,0"
       style="fill:#000000;fill-opacity:1;fill-rule:nonzero;stroke:none"
       transform="matrix(0,1.3333333,1.3333333,0,86.426667,185.93016)" />
    <path
       id="path34"
       d="M 85.04042,98.81532 V 75.928"
       style="fill:none;stroke:#000000;stroke-width:0.79701;stroke-linecap:butt;stroke-linejoin:miter;stroke-miterlimit:10;stroke-dasharray:none;stroke-opacity:1"
       transform="matrix(1.3333333,0,0,-1.3333333,86.426667,211.576)" />
    <path
       id="path35"
       d="M 4.66248,0 C 3.28098,0.25902 1.0361,1.0361 -0.51805,1.94269 V -1.94269 C 1.0361,-1.0361 3.28098,-0.25902 4.66248,0"
       style="fill:#000000;fill-opacity:1;fill-rule:nonzero;stroke:none"
       transform="matrix(0,1.3333333,1.3333333,0,199.81389,110.33867)" />
    <path
       id="path36"
       d="M 95.34433,103.08333 C 120.92838,77.49928 120.92838,35.88794 98.64119,13.60077"
       style="fill:none;stroke:#000000;stroke-width:0.79701;stroke-linecap:butt;stroke-linejoin:miter;stroke-miterlimit:10;stroke-dasharray:none;stroke-opacity:1"
       transform="matrix(1.3333333,0,0,-1.3333333,86.426667,211.576)" />
    <path
       id="path37"
       d="M 4.66248,0 C 3.28098,0.25902 1.0361,1.0361 -0.51805,1.94269 V -1.94269 C 1.0361,-1.0361 3.28098,-0.25902 4.66248,0"
       style="fill:#000000;fill-opacity:1;fill-rule:nonzero;stroke:none"
       transform="matrix(-0.9428,0.9428,0.9428,0.9428,217.94827,193.44163)" />
    <path
       id="path38"
       d="M 85.04042,42.1217 V 19.23438"
       style="fill:none;stroke:#000000;stroke-width:0.79701;stroke-linecap:butt;stroke-linejoin:miter;stroke-miterlimit:10;stroke-dasharray:none;stroke-opacity:1"
       transform="matrix(1.3333333,0,0,-1.3333333,86.426667,211.576)" />
    <path
       id="path39"
       d="M 4.66248,0 C 3.28098,0.25902 1.0361,1.0361 -0.51805,1.94269 V -1.94269 C 1.0361,-1.0361 3.28098,-0.25902 4.66248,0"
       style="fill:#000000;fill-opacity:1;fill-rule:nonzero;stroke:none"
       transform="matrix(0,1.3333333,1.3333333,0,199.81389,185.93016)" />
    <path
       id="path40"
       d="M 14.5719,113.38724 H 65.80605"
       style="fill:none;stroke:#000000;stroke-width:0.79701;stroke-linecap:butt;stroke-linejoin:miter;stroke-miterlimit:10;stroke-dasharray:none;stroke-opacity:1"
       transform="matrix(1.3333333,0,0,-1.3333333,86.426667,211.576)" />
    <path
       id="path41"
       d="M 4.66248,0 C 3.28098,0.25902 1.0361,1.0361 -0.51805,1.94269 V -1.94269 C 1.0361,-1.0361 3.28098,-0.25902 4.66248,0"
       style="fill:#000000;fill-opacity:1;fill-rule:nonzero;stroke:none"
       transform="matrix(1.3333333,0,0,-1.3333333,174.16807,60.393013)" />
    <path
       id="path42"
       d="M 12.12404,105.30461 69.03712,67.36238"
       style="fill:none;stroke:#000000;stroke-width:0.79701;stroke-linecap:butt;stroke-linejoin:miter;stroke-miterlimit:10;stroke-dasharray:none;stroke-opacity:1"
       transform="matrix(1.3333333,0,0,-1.3333333,86.426667,211.576)" />
    <path
       id="path43"
       d="M 4.66248,0 C 3.28098,0.25902 1.0361,1.0361 -0.51805,1.94269 V -1.94269 C 1.0361,-1.0361 3.28098,-0.25902 4.66248,0"
       style="fill:#000000;fill-opacity:1;fill-rule:nonzero;stroke:none"
       transform="matrix(1.10936,0.73956,0.73956,-1.10936,178.47615,121.75949)" />
    <path
       id="path44"
       d="M 8.743,101.73012 73.49997,15.38696"
       style="fill:none;stroke:#000000;stroke-width:0.79701;stroke-linecap:butt;stroke-linejoin:miter;stroke-miterlimit:10;stroke-dasharray:none;stroke-opacity:1"
       transform="matrix(1.3333333,0,0,-1.3333333,86.426667,211.576)" />
    <path
       id="path45"
       d="M 4.66248,0 C 3.28098,0.25902 1.0361,1.0361 -0.51805,1.94269 V -1.94269 C 1.0361,-1.0361 3.28098,-0.25902 4.66248,0"
       style="fill:#000000;fill-opacity:1;fill-rule:nonzero;stroke:none"
       transform="matrix(0.79998667,1.0666267,1.0666267,-0.79998667,184.42663,191.06005)" />
    <path
       id="path46"
       d="m 12.12404,64.77623 56.91308,37.94225"
       style="fill:none;stroke:#000000;stroke-width:0.79701;stroke-linecap:butt;stroke-linejoin:miter;stroke-miterlimit:10;stroke-dasharray:none;stroke-opacity:1"
       transform="matrix(1.3333333,0,0,-1.3333333,86.426667,211.576)" />
    <path
       id="path47"
       d="M 4.66248,0 C 3.28098,0.25902 1.0361,1.0361 -0.51805,1.94269 V -1.94269 C 1.0361,-1.0361 3.28098,-0.25902 4.66248,0"
       style="fill:#000000;fill-opacity:1;fill-rule:nonzero;stroke:none"
       transform="matrix(1.10936,-0.73956,-0.73956,-1.10936,178.47615,74.618027)" />
    <path
       id="path48"
       d="M 14.5719,56.69362 H 65.80605"
       style="fill:none;stroke:#000000;stroke-width:0.79701;stroke-linecap:butt;stroke-linejoin:miter;stroke-miterlimit:10;stroke-dasharray:none;stroke-opacity:1"
       transform="matrix(1.3333333,0,0,-1.3333333,86.426667,211.576)" />
    <path
       id="path49"
       d="M 4.66248,0 C 3.28098,0.25902 1.0361,1.0361 -0.51805,1.94269 V -1.94269 C 1.0361,-1.0361 3.28098,-0.25902 4.66248,0"
       style="fill:#000000;fill-opacity:1;fill-rule:nonzero;stroke:none"
       transform="matrix(1.3333333,0,0,-1.3333333,174.16807,135.98451)" />
    <path
       id="path50"
       d="M 12.12404,48.611 69.03712,10.66876"
       style="fill:none;stroke:#000000;stroke-width:0.79701;stroke-linecap:butt;stroke-linejoin:miter;stroke-miterlimit:10;stroke-dasharray:none;stroke-opacity:1"
       transform="matrix(1.3333333,0,0,-1.3333333,86.426667,211.576)" />
    <path
       id="path51"
       d="M 4.66248,0 C 3.28098,0.25902 1.0361,1.0361 -0.51805,1.94269 V -1.94269 C 1.0361,-1.0361 3.28098,-0.25902 4.66248,0"
       style="fill:#000000;fill-opacity:1;fill-rule:nonzero;stroke:none"
       transform="matrix(1.10936,0.73956,0.73956,-1.10936,178.47615,197.35099)" />
    <path
       id="path52"
       d="M 8.743,11.65712 73.49997,98.00026"
       style="fill:none;stroke:#000000;stroke-width:0.79701;stroke-linecap:butt;stroke-linejoin:miter;stroke-miterlimit:10;stroke-dasharray:none;stroke-opacity:1"
       transform="matrix(1.3333333,0,0,-1.3333333,86.426667,211.576)" />
    <path
       id="path53"
       d="M 4.66248,0 C 3.28098,0.25902 1.0361,1.0361 -0.51805,1.94269 V -1.94269 C 1.0361,-1.0361 3.28098,-0.25902 4.66248,0"
       style="fill:#000000;fill-opacity:1;fill-rule:nonzero;stroke:none"
       transform="matrix(0.79998667,-1.0666267,-1.0666267,-0.79998667,184.42663,80.908987)" />
    <path
       id="path54"
       d="M 12.12404,8.08261 69.03712,46.02484"
       style="fill:none;stroke:#000000;stroke-width:0.79701;stroke-linecap:butt;stroke-linejoin:miter;stroke-miterlimit:10;stroke-dasharray:none;stroke-opacity:1"
       transform="matrix(1.3333333,0,0,-1.3333333,86.426667,211.576)" />
    <path
       id="path55"
       d="M 4.66248,0 C 3.28098,0.25902 1.0361,1.0361 -0.51805,1.94269 V -1.94269 C 1.0361,-1.0361 3.28098,-0.25902 4.66248,0"
       style="fill:#000000;fill-opacity:1;fill-rule:nonzero;stroke:none"
       transform="matrix(1.10936,-0.73956,-0.73956,-1.10936,178.47615,150.20955)" />
    <path
       id="path56"
       d="M 14.5719,0 H 65.80605"
       style="fill:none;stroke:#000000;stroke-width:0.79701;stroke-linecap:butt;stroke-linejoin:miter;stroke-miterlimit:10;stroke-dasharray:none;stroke-opacity:1"
       transform="matrix(1.3333333,0,0,-1.3333333,86.426667,211.576)" />
    <path
       id="path57"
       d="M 4.66248,0 C 3.28098,0.25902 1.0361,1.0361 -0.51805,1.94269 V -1.94269 C 1.0361,-1.0361 3.28098,-0.25902 4.66248,0"
       style="fill:#000000;fill-opacity:1;fill-rule:nonzero;stroke:none"
       transform="matrix(1.3333333,0,0,-1.3333333,174.16807,211.576)" />
    <path
       id="path58"
       d="m -48.56636,113.38724 h 29.33198"
       style="fill:none;stroke:#000000;stroke-width:0.79701;stroke-linecap:butt;stroke-linejoin:miter;stroke-miterlimit:10;stroke-dasharray:none;stroke-opacity:1"
       transform="matrix(1.3333333,0,0,-1.3333333,86.426667,211.576)" />
    <path
       id="path59"
       d="M 4.66248,0 C 3.28098,0.25902 1.0361,1.0361 -0.51805,1.94269 V -1.94269 C 1.0361,-1.0361 3.28098,-0.25902 4.66248,0"
       style="fill:#000000;fill-opacity:1;fill-rule:nonzero;stroke:none"
       transform="matrix(1.3333333,0,0,-1.3333333,60.780827,60.393013)" />
    <path
       id="path60"
       d="m -50.2342,106.92564 36.63339,-36.6314"
       style="fill:none;stroke:#000000;stroke-width:0.79701;stroke-linecap:butt;stroke-linejoin:miter;stroke-miterlimit:10;stroke-dasharray:none;stroke-opacity:1"
       transform="matrix(1.3333333,0,0,-1.3333333,86.426667,211.576)" />
    <path
       id="path61"
       d="M 4.66248,0 C 3.28098,0.25902 1.0361,1.0361 -0.51805,1.94269 V -1.94269 C 1.0361,-1.0361 3.28098,-0.25902 4.66248,0"
       style="fill:#000000;fill-opacity:1;fill-rule:nonzero;stroke:none"
       transform="matrix(0.94282667,0.94277333,0.94277333,-0.94282667,68.292227,117.85033)" />
    <path
       id="path62"
       d="M -53.46588,106.92564 -8.60124,17.20256"
       style="fill:none;stroke:#000000;stroke-width:0.79701;stroke-linecap:butt;stroke-linejoin:miter;stroke-miterlimit:10;stroke-dasharray:none;stroke-opacity:1"
       transform="matrix(1.3333333,0,0,-1.3333333,86.426667,211.576)" />
    <path
       id="path63"
       d="M 4.66248,0 C 3.28098,0.25902 1.0361,1.0361 -0.51805,1.94269 V -1.94269 C 1.0361,-1.0361 3.28098,-0.25902 4.66248,0"
       style="fill:#000000;fill-opacity:1;fill-rule:nonzero;stroke:none"
       transform="matrix(0.59626667,1.1925067,1.1925067,-0.59626667,74.95832,188.63923)" />
    <path
       id="path64"
       d="m -50.2342,63.1552 36.63339,36.63142"
       style="fill:none;stroke:#000000;stroke-width:0.79701;stroke-linecap:butt;stroke-linejoin:miter;stroke-miterlimit:10;stroke-dasharray:none;stroke-opacity:1"
       transform="matrix(1.3333333,0,0,-1.3333333,86.426667,211.576)" />
    <path
       id="path65"
       d="M 4.66248,0 C 3.28098,0.25902 1.0361,1.0361 -0.51805,1.94269 V -1.94269 C 1.0361,-1.0361 3.28098,-0.25902 4.66248,0"
       style="fill:#000000;fill-opacity:1;fill-rule:nonzero;stroke:none"
       transform="matrix(0.94282667,-0.94277333,-0.94277333,-0.94282667,68.292227,78.5272)" />
    <path
       id="path66"
       d="m -48.56636,56.69362 h 29.33198"
       style="fill:none;stroke:#000000;stroke-width:0.79701;stroke-linecap:butt;stroke-linejoin:miter;stroke-miterlimit:10;stroke-dasharray:none;stroke-opacity:1"
       transform="matrix(1.3333333,0,0,-1.3333333,86.426667,211.576)" />
    <path
       id="path67"
       d="M 4.66248,0 C 3.28098,0.25902 1.0361,1.0361 -0.51805,1.94269 V -1.94269 C 1.0361,-1.0361 3.28098,-0.25902 4.66248,0"
       style="fill:#000000;fill-opacity:1;fill-rule:nonzero;stroke:none"
       transform="matrix(1.3333333,0,0,-1.3333333,60.780827,135.98451)" />
    <path
       id="path68"
       d="M -50.2342,50.23203 -13.60081,13.60062"
       style="fill:none;stroke:#000000;stroke-width:0.79701;stroke-linecap:butt;stroke-linejoin:miter;stroke-miterlimit:10;stroke-dasharray:none;stroke-opacity:1"
       transform="matrix(1.3333333,0,0,-1.3333333,86.426667,211.576)" />
    <path
       id="path69"
       d="M 4.66248,0 C 3.28098,0.25902 1.0361,1.0361 -0.51805,1.94269 V -1.94269 C 1.0361,-1.0361 3.28098,-0.25902 4.66248,0"
       style="fill:#000000;fill-opacity:1;fill-rule:nonzero;stroke:none"
       transform="matrix(0.94282667,0.94277333,0.94277333,-0.94282667,68.292227,193.44183)" />
    <path
       id="path70"
       d="M -53.46588,6.46158 -8.60124,96.18466"
       style="fill:none;stroke:#000000;stroke-width:0.79701;stroke-linecap:butt;stroke-linejoin:miter;stroke-miterlimit:10;stroke-dasharray:none;stroke-opacity:1"
       transform="matrix(1.3333333,0,0,-1.3333333,86.426667,211.576)" />
    <path
       id="path71"
       d="M 4.66248,0 C 3.28098,0.25902 1.0361,1.0361 -0.51805,1.94269 V -1.94269 C 1.0361,-1.0361 3.28098,-0.25902 4.66248,0"
       style="fill:#000000;fill-opacity:1;fill-rule:nonzero;stroke:none"
       transform="matrix(0.59626667,-1.1925067,-1.1925067,-0.59626667,74.95832,83.3298)" />
    <path
       id="path72"
       d="M -50.2342,6.46158 -13.60081,43.093"
       style="fill:none;stroke:#000000;stroke-width:0.79701;stroke-linecap:butt;stroke-linejoin:miter;stroke-miterlimit:10;stroke-dasharray:none;stroke-opacity:1"
       transform="matrix(1.3333333,0,0,-1.3333333,86.426667,211.576)" />
    <path
       id="path73"
       d="M 4.66248,0 C 3.28098,0.25902 1.0361,1.0361 -0.51805,1.94269 V -1.94269 C 1.0361,-1.0361 3.28098,-0.25902 4.66248,0"
       style="fill:#000000;fill-opacity:1;fill-rule:nonzero;stroke:none"
       transform="matrix(0.94282667,-0.94277333,-0.94277333,-0.94282667,68.292227,154.11868)" />
    <path
       id="path74"
       d="m -48.56636,0 h 29.33198"
       style="fill:none;stroke:#000000;stroke-width:0.79701;stroke-linecap:butt;stroke-linejoin:miter;stroke-miterlimit:10;stroke-dasharray:none;stroke-opacity:1"
       transform="matrix(1.3333333,0,0,-1.3333333,86.426667,211.576)" />
    <path
       id="path75"
       d="M 4.66248,0 C 3.28098,0.25902 1.0361,1.0361 -0.51805,1.94269 V -1.94269 C 1.0361,-1.0361 3.28098,-0.25902 4.66248,0"
       style="fill:#000000;fill-opacity:1;fill-rule:nonzero;stroke:none"
       transform="matrix(1.3333333,0,0,-1.3333333,60.780827,211.576)" />
    <path
       id="path76"
       d="m -50.23322,119.84882 c 34.59646,34.59468 90.37505,38.43699 121.67287,7.13918"
       style="fill:none;stroke:#000000;stroke-width:0.79701;stroke-linecap:butt;stroke-linejoin:miter;stroke-miterlimit:10;stroke-dasharray:none;stroke-opacity:1"
       transform="matrix(1.3333333,0,0,-1.3333333,86.426667,211.576)" />
    <path
       id="path77"
       d="M 4.66248,0 C 3.28098,0.25902 1.0361,1.0361 -0.51805,1.94269 V -1.94269 C 1.0361,-1.0361 3.28098,-0.25902 4.66248,0"
       style="fill:#000000;fill-opacity:1;fill-rule:nonzero;stroke:none"
       transform="matrix(0.9428,0.9428,0.9428,-0.9428,181.67952,42.25864)" />
    <path
       id="path78"
       d="M -50.23213,106.92564 C -13.9354,70.62958 38.44046,103.29358 71.43965,70.29439"
       style="fill:none;stroke:#000000;stroke-width:0.79701;stroke-linecap:butt;stroke-linejoin:miter;stroke-miterlimit:10;stroke-dasharray:none;stroke-opacity:1"
       transform="matrix(1.3333333,0,0,-1.3333333,86.426667,211.576)" />
    <path
       id="path79"
       d="M 4.66248,0 C 3.28098,0.25902 1.0361,1.0361 -0.51805,1.94269 V -1.94269 C 1.0361,-1.0361 3.28098,-0.25902 4.66248,0"
       style="fill:#000000;fill-opacity:1;fill-rule:nonzero;stroke:none"
       transform="matrix(0.9428,0.9428,0.9428,-0.9428,181.67952,117.85013)" />
    <path
       id="path80"
       d="M -48.56636,109.59904 C 8.18138,83.13522 52.42038,69.95442 76.91185,17.432"
       style="fill:none;stroke:#000000;stroke-width:0.79701;stroke-linecap:butt;stroke-linejoin:miter;stroke-miterlimit:10;stroke-dasharray:none;stroke-opacity:1"
       transform="matrix(1.3333333,0,0,-1.3333333,86.426667,211.576)" />
    <path
       id="path81"
       d="M 4.66248,0 C 3.28098,0.25902 1.0361,1.0361 -0.51805,1.94269 V -1.94269 C 1.0361,-1.0361 3.28098,-0.25902 4.66248,0"
       style="fill:#000000;fill-opacity:1;fill-rule:nonzero;stroke:none"
       transform="matrix(0.56346667,1.2084,1.2084,-0.56346667,188.97577,188.33331)" />
    <path
       id="path82"
       d="M -50.23213,63.1552 C -13.9354,99.45126 38.44046,66.78728 71.43965,99.78647"
       style="fill:none;stroke:#000000;stroke-width:0.79701;stroke-linecap:butt;stroke-linejoin:miter;stroke-miterlimit:10;stroke-dasharray:none;stroke-opacity:1"
       transform="matrix(1.3333333,0,0,-1.3333333,86.426667,211.576)" />
    <path
       id="path83"
       d="M 4.66248,0 C 3.28098,0.25902 1.0361,1.0361 -0.51805,1.94269 V -1.94269 C 1.0361,-1.0361 3.28098,-0.25902 4.66248,0"
       style="fill:#000000;fill-opacity:1;fill-rule:nonzero;stroke:none"
       transform="matrix(0.9428,-0.9428,-0.9428,-0.9428,181.67952,78.5274)" />
    <path
       id="path84"
       d="m -50.23322,63.1552 c 34.59646,34.59468 90.37505,38.437 121.67287,7.13919"
       style="fill:none;stroke:#000000;stroke-width:0.79701;stroke-linecap:butt;stroke-linejoin:miter;stroke-miterlimit:10;stroke-dasharray:none;stroke-opacity:1"
       transform="matrix(1.3333333,0,0,-1.3333333,86.426667,211.576)" />
    <path
       id="path85"
       d="M 4.66248,0 C 3.28098,0.25902 1.0361,1.0361 -0.51805,1.94269 V -1.94269 C 1.0361,-1.0361 3.28098,-0.25902 4.66248,0"
       style="fill:#000000;fill-opacity:1;fill-rule:nonzero;stroke:none"
       transform="matrix(0.9428,0.9428,0.9428,-0.9428,181.67952,117.85013)" />
    <path
       id="path86"
       d="M -50.23213,50.23203 C -13.9354,13.93596 38.44046,46.59996 71.43965,13.60077"
       style="fill:none;stroke:#000000;stroke-width:0.79701;stroke-linecap:butt;stroke-linejoin:miter;stroke-miterlimit:10;stroke-dasharray:none;stroke-opacity:1"
       transform="matrix(1.3333333,0,0,-1.3333333,86.426667,211.576)" />
    <path
       id="path87"
       d="M 4.66248,0 C 3.28098,0.25902 1.0361,1.0361 -0.51805,1.94269 V -1.94269 C 1.0361,-1.0361 3.28098,-0.25902 4.66248,0"
       style="fill:#000000;fill-opacity:1;fill-rule:nonzero;stroke:none"
       transform="matrix(0.9428,0.9428,0.9428,-0.9428,181.67952,193.44163)" />
    <path
       id="path88"
       d="M -48.56636,3.78818 C 8.18138,30.252 52.42038,43.4328 76.91185,95.95522"
       style="fill:none;stroke:#000000;stroke-width:0.79701;stroke-linecap:butt;stroke-linejoin:miter;stroke-miterlimit:10;stroke-dasharray:none;stroke-opacity:1"
       transform="matrix(1.3333333,0,0,-1.3333333,86.426667,211.576)" />
    <path
       id="path89"
       d="M 4.66248,0 C 3.28098,0.25902 1.0361,1.0361 -0.51805,1.94269 V -1.94269 C 1.0361,-1.0361 3.28098,-0.25902 4.66248,0"
       style="fill:#000000;fill-opacity:1;fill-rule:nonzero;stroke:none"
       transform="matrix(0.56346667,-1.2084,-1.2084,-0.56346667,188.97577,83.635733)" />
    <path
       id="path90"
       d="M -50.23213,6.46158 C -13.9354,42.75764 38.44046,10.09364 71.43965,43.09285"
       style="fill:none;stroke:#000000;stroke-width:0.79701;stroke-linecap:butt;stroke-linejoin:miter;stroke-miterlimit:10;stroke-dasharray:none;stroke-opacity:1"
       transform="matrix(1.3333333,0,0,-1.3333333,86.426667,211.576)" />
    <path
       id="path91"
       d="M 4.66248,0 C 3.28098,0.25902 1.0361,1.0361 -0.51805,1.94269 V -1.94269 C 1.0361,-1.0361 3.28098,-0.25902 4.66248,0"
       style="fill:#000000;fill-opacity:1;fill-rule:nonzero;stroke:none"
       transform="matrix(0.9428,-0.9428,-0.9428,-0.9428,181.67952,154.11889)" />
    <path
       id="path92"
       d="m -50.23322,-6.46158 c 34.59646,-34.59468 90.37505,-38.43699 121.67287,-7.13919"
       style="fill:none;stroke:#000000;stroke-width:0.79701;stroke-linecap:butt;stroke-linejoin:miter;stroke-miterlimit:10;stroke-dasharray:none;stroke-opacity:1"
       transform="matrix(1.3333333,0,0,-1.3333333,86.426667,211.576)" />
    <path
       id="path93"
       d="M 4.66248,0 C 3.28098,0.25902 1.0361,1.0361 -0.51805,1.94269 V -1.94269 C 1.0361,-1.0361 3.28098,-0.25902 4.66248,0"
       style="fill:#000000;fill-opacity:1;fill-rule:nonzero;stroke:none"
       transform="matrix(0.9428,-0.9428,-0.9428,-0.9428,181.67952,229.71037)" />
  </g>
</svg>
